<?xml version="1.0" standalone="no"?>
<!DOCTYPE svg PUBLIC "-//W3C//DTD SVG 1.1//EN" "http://www.w3.org/Graphics/SVG/1.1/DTD/svg11.dtd" >
<svg xmlns="http://www.w3.org/2000/svg" xmlns:xlink="http://www.w3.org/1999/xlink" version="1.1">
<metadata>
Created by FontForge 20190801 at Mon Jul 15 13:25:58 2013
 By Unknown
Typeface (c) Hareesh Seela. &#60;2013&#62;. All Rights Reserved
</metadata>
<defs>
<font id="Easy3D" horiz-adv-x="1014" >
  <font-face 
    font-family="Easy 3D"
    font-weight="400"
    font-stretch="normal"
    units-per-em="2048"
    panose-1="2 0 5 0 0 0 0 0 0 0"
    ascent="1638"
    descent="-410"
    x-height="1332"
    cap-height="1438"
    bbox="-342 -418 2048 1716"
    underline-thickness="150"
    underline-position="-292"
    unicode-range="U+0020-F002"
  />
<missing-glyph horiz-adv-x="1024" 
d="M100 0v1434h824v-1434h-824zM150 50h724v1334h-724v-1334zM325 1148q31 28 58 43q53 30 112 30q92 0 148 -47.5t56 -127.5q0 -49 -23 -98.5t-87 -129.5q-63 -80 -99 -132t-36 -99q0 -38 24 -133h-32q-35 97 -35 148q0 76 81.5 218t81.5 217q0 57 -33 90t-91 33
q-38 0 -69 -17q-26 -15 -56 -40v45zM389 334l57 58q11 10 20 10q10 0 22 -11l56 -60q9 -11 9 -20q0 -11 -10 -22l-56 -62q-14 -14 -21 -14q-11 0 -20 10l-61 71q-7 9 -7 18q0 10 11 22z" />
    <glyph glyph-name=".notdef" horiz-adv-x="1024" 
d="M100 0v1434h824v-1434h-824zM150 50h724v1334h-724v-1334zM325 1148q31 28 58 43q53 30 112 30q92 0 148 -47.5t56 -127.5q0 -49 -23 -98.5t-87 -129.5q-63 -80 -99 -132t-36 -99q0 -38 24 -133h-32q-35 97 -35 148q0 76 81.5 218t81.5 217q0 57 -33 90t-91 33
q-38 0 -69 -17q-26 -15 -56 -40v45zM389 334l57 58q11 10 20 10q10 0 22 -11l56 -60q9 -11 9 -20q0 -11 -10 -22l-56 -62q-14 -14 -21 -14q-11 0 -20 10l-61 71q-7 9 -7 18q0 10 11 22z" />
    <glyph glyph-name=".null" horiz-adv-x="0" 
 />
    <glyph glyph-name="nonmarkingreturn" horiz-adv-x="508" 
 />
    <glyph glyph-name="space" unicode=" " horiz-adv-x="508" 
 />
    <glyph glyph-name="space" unicode="&#xa0;" horiz-adv-x="508" 
 />
    <glyph glyph-name="exclam" unicode="!" horiz-adv-x="674" 
d="M157 1434h148q10 0 47 -212q4 -3 140 -683l-8 -4h-149q-9 0 -47 212q-4 1 -140 683zM127 1426q115 -536 183 -896q-13 -11 -128 -63q-42 176 -182 895v4zM331 513h131v-8q-105 -51 -114 -51h-132v8q106 51 115 51zM454 318q127 -22 127 -144v-26q0 -50 -72 -67
q-123 26 -123 161q12 76 68 76zM378 288q-9 -29 -13 -59q0 -77 76 -144q44 -21 60 -21v-9q-113 -55 -132 -55q-85 0 -127 119q-4 16 -4 34v12q0 81 106 111q7 12 34 12z" />
    <glyph glyph-name="quotedbl" unicode="&#x22;" horiz-adv-x="728" 
d="M144 1704h164q10 0 92 -440h-96q-12 0 -160 436v4zM456 1704h156q12 0 48 -212q4 -9 48 -224l-8 -4h-88q-13 0 -144 384q-10 12 -20 52zM120 1696q16 -28 160 -436q-35 -23 -120 -64q-12 11 -160 440zM428 1696l160 -436q-108 -60 -124 -60h-4q-69 173 -108 384l-12 68
q78 44 88 44zM300 1244h76v-8q-108 -52 -116 -52h-72v8q105 52 112 52zM608 1244h72v-8q-100 -48 -108 -48h-72v8q100 48 108 48z" />
    <glyph glyph-name="numbersign" unicode="#" horiz-adv-x="1092" 
d="M367 1429h106l9 -4q-13 -225 -13 -342l9 -4h230q13 350 26 350h102l9 -4q-13 -256 -13 -342l8 -4h124q12 0 34 -132l-8 -4h-167l-13 -346l9 -4h124q14 0 34 -132l-9 -5q-125 -4 -166 -4v-4l-13 -358l-8 -5h-111v5q0 77 13 358l-9 4h-235q-12 -367 -25 -367h-103l-8 5
q0 3 4 25q9 291 9 333l-9 4h-119q-17 0 -34 137h149l21 4q9 172 13 345h-132q-13 0 -34 137l8 4h158q9 0 9 9l12 337zM337 1420q0 -4 4 -4q-13 -274 -13 -315l-8 -5h-111q-9 0 -9 9q0 36 9 251zM704 1420q-6 -324 -21 -324h-111l-9 5q9 158 9 234q0 33 132 85zM149 1071
l30 -133l-128 -68q-30 88 -30 137q45 25 128 64zM456 926q0 -25 -8 -333h235q8 0 8 8q9 264 9 299q0 3 4 26q-7 17 -13 17h-222q-10 0 -13 -17zM200 921h90v-4q-97 -60 -119 -60h-90v9zM482 921h171v-4q-98 -60 -120 -60h-51q-9 0 -9 9v47q2 8 9 8zM849 921h119v-8
q-11 0 -102 -51h-21q-9 0 -9 12q0 47 13 47zM316 917q0 -4 4 -4q-4 -54 -13 -299l-8 -4h-111q-9 0 -9 9q0 238 21 238q104 52 116 60zM678 917l5 -8q-9 -226 -9 -295l-9 -4h-115l-8 4q0 4 4 34q4 183 4 201zM128 584q9 0 30 -136q-44 -26 -128 -64q-13 42 -30 132zM188 435
h85v-8q-111 -56 -119 -56h-90v9q115 55 124 55zM461 435h175v-8q-111 -56 -120 -56h-55q-9 0 -9 9v47q1 8 9 8zM828 435h123v-8q-115 -56 -123 -56h-9v56q1 8 9 8zM299 427l-13 -346q-117 -64 -132 -64q4 43 12 346q120 64 133 64zM661 427q0 -354 -25 -354q-8 0 -116 -56
q0 4 -4 4q4 15 4 17q0 333 26 333q101 56 115 56zM294 64h98v-9q-115 -55 -123 -55h-86v9q12 0 111 55zM665 64h90v-9q-106 -51 -115 -51h-85v9q98 51 110 51z" />
    <glyph glyph-name="dollar" unicode="$" horiz-adv-x="1254" 
d="M528 1434h52q12 0 34 -133q9 0 9 -4q155 4 236 4h137q11 0 39 -172l-9 -4h-373v-4q51 -284 64 -284h150q252 0 327 -266q17 -80 17 -120v-22q0 -214 -228 -214h-146q0 -16 26 -129l-9 -4h-51q-13 0 -39 133h-425q-14 0 -43 171l9 5h421q0 8 4 8q-60 286 -60 297h-150
q-235 0 -323 197q-47 83 -47 180v18q0 146 133 197q41 9 65 9h184l13 8l-25 125zM498 1425q9 -25 26 -103l-9 -4h-133q-13 0 -13 43zM180 1245q-51 -74 -51 -159q0 -235 206 -373q77 -35 146 -35h142v-8q-109 -56 -121 -56h-154q-229 0 -327 262q-21 58 -21 120v26
q0 166 176 223h4zM305 1026v-13q0 -112 103 -167q16 -9 34 -9h193q0 38 -55 288h-189q-86 0 -86 -99zM683 1108h326v-9q-110 -56 -120 -56h-198q-13 0 -17 60zM391 1103h141v-8q-107 -52 -116 -52h-85l-9 5q0 42 69 55zM567 1099q47 -217 47 -240v-5h-137q-11 9 -43 176
q33 25 133 69zM738 696q58 -294 69 -301h159q107 0 107 107q0 118 -98 181q-33 17 -116 17h-99zM769 678h124q127 0 155 -133q4 -30 4 -51q0 -82 -90 -82h-35l-8 4q0 5 4 5q0 133 -103 184q-51 6 -51 26q-9 37 -9 43zM653 670q25 -96 51 -258h-137q-12 0 -43 193v5zM275 382
q30 -111 30 -176q-116 -60 -125 -60h-4q-30 157 -30 176zM867 197h172v-8q-108 -56 -167 -56q-13 35 -13 60zM331 193h386v-8q-107 -52 -116 -52h-322q-21 0 -64 -4v4q81 53 116 60zM751 189q22 -89 22 -112q-116 -64 -133 -64q0 17 -22 107q83 47 133 69zM794 60h39v-8
q-107 -52 -116 -52h-39v9q107 51 116 51z" />
    <glyph glyph-name="percent" unicode="%" horiz-adv-x="1610" 
d="M1220 1488l8 -4l-647 -1492h-8q-20 0 -95 -4l-4 9l651 1491h95zM1096 1480v-4q-66 -167 -647 -1488q-93 -53 -115 -53q626 1453 651 1491zM363 1434q192 0 313 -247q29 -101 29 -156q0 -177 -145 -239q-25 -13 -78 -13q-145 0 -268 186q-66 111 -66 218v33q0 152 145 210
q40 8 70 8zM185 1381v-4q-57 -84 -57 -177q0 -238 210 -392q73 -45 152 -45h29v-8q-102 -54 -156 -54h-13q-153 0 -280 190q-70 125 -70 239q0 192 185 251zM227 1179v-4q0 -194 164 -284q39 -13 70 -13h17q91 0 128 74q16 45 16 75v37q0 144 -132 243q-50 29 -103 29h-24
q-93 0 -124 -91q-12 -27 -12 -66zM383 1319q152 0 214 -198q9 -41 9 -74v-16q-13 -136 -136 -136q0 4 -4 4q12 33 12 62v20q0 180 -157 264q-57 12 -57 21q49 53 119 53zM1244 742q190 0 305 -230q37 -86 37 -165v-13q0 -197 -181 -247h-29q-212 0 -329 297q-17 77 -17 128
q0 158 136 218q45 12 78 12zM1075 693q-61 -84 -61 -169v-37q0 -189 173 -346q92 -70 177 -70h37v-9q-95 -53 -153 -53h-16q-177 0 -309 243q-37 107 -37 173v25q0 179 189 243zM1108 483q0 -182 157 -280q36 -17 78 -17h21q110 0 140 115q0 3 4 54q0 178 -157 272
q-44 16 -82 16h-21q-102 0 -131 -107zM1269 627q147 0 210 -194q12 -67 12 -86q0 -117 -115 -144h-25q13 58 13 78q0 166 -136 259q-10 9 -78 29q35 58 119 58zM470 -28h78v-8q-107 -54 -115 -54h-83v8q111 54 120 54z" />
    <glyph glyph-name="ampersand" unicode="&#x26;" horiz-adv-x="1447" 
d="M640 1434q8 0 47 -219l-9 -4h-214q-121 0 -121 -125q0 -172 159 -223q44 -4 69 -4h356q66 0 215 4q10 0 39 -185h-121l-8 -4q73 -364 81 -373h189q11 0 52 -215l-9 -4h-682q-259 0 -387 296q-43 107 -43 189v25q0 129 121 198v4q-86 45 -142 112q-82 128 -82 288v4
q0 156 168 219q58 17 322 17zM193 1365q-60 -75 -60 -163v-38q0 -163 112 -301q72 -64 90 -64v-5q0 -10 -129 -64q-117 53 -172 193q-34 102 -34 180v26q0 169 193 236zM661 1194v-9q-113 -56 -120 -56h-163q-9 0 -9 9q0 44 129 56h163zM288 751v-4q-52 -73 -52 -146v-43
q0 -197 172 -386q122 -112 318 -112h77q196 0 545 4v-8q-116 -56 -124 -56h-683q-269 0 -404 318q-34 104 -34 180v26q0 167 185 227zM434 554q0 -209 197 -249q22 -4 52 -4h257q9 0 9 8q-69 342 -77 365q-8 4 -18 4h-201q-211 0 -211 -81q-7 0 -8 -43zM1082 661h77v-8
l-77 -35q-4 8 -9 39zM605 657h219v-9l-111 -51h-249v8q36 52 141 52zM859 653l68 -327q-8 -4 -13 -4q-19 0 -128 -4q-9 12 -60 266q112 62 133 69z" />
    <glyph glyph-name="quotesingle" unicode="'" horiz-adv-x="414" 
d="M143 1711h156q12 0 92 -432q4 0 4 -4l-8 -4h-92q-10 0 -160 436zM115 1703q156 -428 156 -440l-120 -60q-16 26 -160 440q117 60 124 60zM295 1251h72v-8q-108 -52 -116 -52h-72v8q108 52 116 52z" />
    <glyph glyph-name="parenleft" unicode="(" horiz-adv-x="643" 
d="M180 1534h104v-4q-36 -307 -36 -416q4 -21 4 -40v-24q0 -492 356 -1096l-8 -4h-96q-12 5 -124 220q-240 519 -240 964q13 381 40 400zM152 1526q-28 -217 -28 -384q0 -581 356 -1192v-12l-120 -56q-360 604 -360 1204q0 178 32 384q108 56 120 56zM504 -70h84v-8
q-108 -52 -116 -52h-76v4q87 56 108 56z" />
    <glyph glyph-name="parenright" unicode=")" horiz-adv-x="688" 
d="M152 1514h96q117 -183 244 -516q116 -353 116 -692q0 -192 -36 -380h-100q-8 0 -8 8q36 225 36 388v40q0 534 -356 1148zM124 1506q360 -608 360 -1160q0 -228 -44 -424q-11 0 -112 -56h-4v4q36 232 36 412q0 551 -360 1160q0 14 124 64zM460 -90h84v-8l-112 -52h-84v8z
" />
    <glyph glyph-name="asterisk" unicode="*" horiz-adv-x="674" 
d="M224 1709h52q14 0 40 -168q9 -44 20 -60q134 58 160 64q12 -18 36 -76l-160 -72l144 -192v-8q-3 0 -40 -40q-16 12 -144 180q-4 0 -12 4q-65 -183 -76 -184q-56 43 -56 48q0 11 64 192q-187 66 -188 72v4q0 39 8 72l180 -64q4 8 4 12q0 13 -40 212zM196 1701
q24 -95 40 -192q-4 0 -4 -4q-144 46 -144 64q-12 59 -12 72zM48 1545q0 -4 4 -4l-4 -48v-24q-3 -8 -120 -64l-4 8q0 84 28 84q10 0 96 48zM56 1449l164 -56v-4q0 -8 -116 -60l-164 56v8q7 0 116 56zM224 1377q0 -4 4 -4q-56 -163 -72 -172l-104 -48v4q53 172 76 172z
M332 1309l124 -160v-12l-120 -56q-64 80 -64 84q50 142 60 144zM176 1189q56 -43 56 -48q-30 -25 -120 -64l-56 48v8q109 56 120 56z" />
    <glyph glyph-name="plus" unicode="+" 
d="M408 1228h88q13 0 48 -208q42 -203 52 -212h328q13 0 32 -128l-8 -4h-324l-8 -4q84 -401 84 -412l-8 -4h-88q-14 0 -40 164l-56 256h-336q-8 0 -32 124l8 4h324q8 0 8 12l-80 408zM380 1220q20 -83 80 -392l-8 -4h-120q-12 0 -64 288q-3 0 -12 44q41 27 124 64zM120 800
q16 -47 28 -128q-105 -52 -116 -60h-8l-24 124q57 33 120 64zM392 660h76v-4q-91 -56 -112 -56h-296v8q9 0 96 48q157 4 236 4zM644 660h288v-8q-108 -52 -116 -52h-160q-12 0 -20 56zM496 652q80 -373 80 -404l-120 -56h-4q0 17 -80 400q117 60 124 60zM596 236h76v-8
q-94 -48 -104 -48h-76v8q97 48 104 48z" />
    <glyph glyph-name="comma" unicode="," horiz-adv-x="557" 
d="M148 240h148q16 0 20 -280q5 0 8 -156l-8 -4h-80q-15 0 -32 128q-16 57 -64 308zM120 232q88 -404 88 -440l-120 -60q-52 230 -88 440q109 60 120 60zM232 -220h64v-8l-112 -52h-68v8q108 52 116 52z" />
    <glyph glyph-name="hyphen" unicode="-" horiz-adv-x="670" 
d="M222 732h312q9 0 32 -128l-8 -4h-312q-13 0 -32 128zM194 724l28 -128q-112 -60 -124 -60h-4q0 21 -24 124q105 58 124 64zM238 580h300v-8q-7 0 -100 -48q-192 -4 -296 -4h-16v8z" />
    <glyph glyph-name="hyphen" unicode="&#xad;" horiz-adv-x="670" 
d="M222 732h312q9 0 32 -128l-8 -4h-312q-13 0 -32 128zM194 724l28 -128q-112 -60 -124 -60h-4q0 21 -24 124q105 58 124 64zM238 580h300v-8q-7 0 -100 -48q-192 -4 -296 -4h-16v8z" />
    <glyph glyph-name="period" unicode="." horiz-adv-x="557" 
d="M208 300q86 0 116 -124v-32q-18 -64 -60 -64h-24q-100 39 -100 132v12q9 76 68 76zM132 276v-4q-8 -32 -8 -40v-20q0 -108 108 -148q12 0 12 -8v-4q-106 -52 -120 -52q-87 0 -120 124q-4 3 -4 36q0 72 116 108q0 8 16 8z" />
    <glyph glyph-name="slash" unicode="/" horiz-adv-x="569" 
d="M545 1473l10 -5q-34 -176 -261 -1483l-10 -5h-109q-9 0 -9 10q261 1464 270 1483h109zM408 1468q0 -4 4 -4l-270 -1484l-137 -71l-5 9q256 1437 270 1479zM166 -39h95v-9q-128 -62 -138 -62h-95v9q128 62 138 62z" />
    <glyph glyph-name="zero" unicode="0" horiz-adv-x="1353" 
d="M569 1434h47q268 0 506 -291q181 -259 181 -536v-21q0 -314 -244 -459q-90 -47 -182 -47h-17q-332 0 -590 405q-122 239 -122 464q0 335 278 460q73 25 143 25zM283 1345q-152 -164 -152 -375v-42q0 -365 303 -683q214 -186 447 -186l72 8v-8q-114 -59 -206 -59h-26
q-336 0 -594 405q-127 240 -127 460v12q0 342 278 468h5zM329 886q0 -253 190 -468q142 -123 295 -123h13q226 0 291 236q8 63 8 93q0 299 -211 494q-129 101 -261 101h-30q-204 0 -278 -194q-17 -76 -17 -139zM645 1202q265 0 414 -316q50 -148 50 -258q0 -228 -190 -299
h-12q71 92 71 236q0 273 -210 481q-130 93 -266 93h-46v4q65 59 189 59z" />
    <glyph glyph-name="one" unicode="1" horiz-adv-x="926" 
d="M159 1434h21q259 0 348 -125q101 -87 155 -330q8 -54 180 -889l-9 -4h-163q-11 0 -64 296q-125 619 -155 709q-65 120 -167 120h-103q-16 0 -52 219zM129 1425q43 -195 43 -219l-129 -64q-43 184 -43 219q27 19 129 64zM197 1194h95q129 0 180 -159q159 -767 193 -953
q-115 -65 -133 -65q-167 852 -206 988q-62 124 -163 124h-90v9q116 56 124 56zM687 64h146v-8q-107 -52 -116 -52h-73q-23 0 -73 -4v4q38 33 116 60z" />
    <glyph glyph-name="two" unicode="2" horiz-adv-x="1479" 
d="M869 1434q174 0 300 -133q124 -156 124 -321v-38q0 -204 -201 -257q-29 -4 -56 -4h-103q-127 0 -342 -5q-89 0 -103 -115v-5q35 -252 51 -252h869q15 0 52 -214l-9 -4h-843q-62 0 -193 -5q-98 437 -98 527q0 252 282 252h368q142 0 142 107v30q0 148 -137 210l-43 4h-728
q-16 0 -38 159q-7 0 -13 55l8 5h227q181 0 484 4zM128 1421h5q38 -197 38 -218l-128 -60q-9 16 -43 214q55 36 128 64zM659 1194h257q130 0 167 -150q9 -19 9 -55v-4q0 -103 -103 -103h-22q-8 0 -8 8v30q0 149 -133 206q-23 4 -38 4h-711v9q11 0 103 51q313 4 479 4z
M355 796q-55 -75 -55 -180v-8q0 -92 94 -527q-115 -64 -133 -64q-94 427 -94 527q0 196 188 252zM1083 663v-8q-93 -60 -261 -60h-300q-8 0 -8 9q30 55 115 55h411zM1434 68v-8q-108 -56 -120 -56h-291q-247 0 -728 -4v9q107 55 120 55h227q275 0 792 4z" />
    <glyph glyph-name="three" unicode="3" horiz-adv-x="1492" 
d="M869 1435q350 0 429 -356q8 -53 8 -90v-12q0 -116 -102 -172v-8q102 -56 137 -103q111 -126 111 -326q0 -185 -163 -261q-58 -21 -124 -21h-544q-66 0 -201 -5q-9 28 -47 219l8 4h681q168 0 197 111q0 11 5 35q-33 227 -197 227h-497q-14 0 -43 180l8 4h467
q133 0 133 120q0 140 -103 201q-58 30 -133 30h-698q-11 0 -51 214l8 5h189q214 0 522 4zM128 1426q9 -21 48 -218l-129 -64q-8 0 -47 214zM415 1195h459q165 0 210 -86q34 -76 34 -137q0 -94 -129 -94l-4 9q0 182 -128 231q-65 13 -107 13h-669v8q7 0 99 52q155 4 235 4z
M505 852l39 -175q-57 -36 -133 -69q-34 153 -34 180q44 26 128 64zM565 660h484q157 0 193 -180v-47q0 -82 -137 -107l4 42v26q-27 201 -192 201h-472v9zM351 296q9 -13 47 -215l-128 -68q-9 11 -47 218zM1225 69v-9q-95 -56 -193 -56q-192 0 -732 -4v9q110 55 120 55h676
q43 0 129 5z" />
    <glyph glyph-name="four" unicode="4" horiz-adv-x="1546" 
d="M984 1429h162q12 0 52 -236l115 -539h150q15 0 47 -205v-4h-154v-4q0 -12 68 -355l-8 -5h-158q-16 0 -39 159l-47 205h-470q-380 0 -458 500l-94 475l8 4h159q14 0 38 -154q83 -415 120 -517q63 -99 162 -99h492v5q-13 79 -154 765zM954 1420q13 -34 154 -744l-9 -4h-128
q-14 0 -47 201q-4 0 -98 483zM128 1416h5q116 -656 184 -766q119 -227 414 -227q255 5 403 5v-9q-116 -55 -124 -55h-454q-310 0 -423 338q-133 609 -133 654q119 60 128 60zM1382 428h102v-9q-10 0 -94 -47q-9 0 -17 51zM1159 419q56 -249 69 -342q-56 -31 -129 -64
q-68 305 -68 346zM1258 64h141v-8q-107 -56 -120 -56h-145v9q115 55 124 55z" />
    <glyph glyph-name="five" unicode="5" horiz-adv-x="1551" 
d="M1250 1434q8 -5 47 -214q-4 0 -4 -4q-114 -5 -180 -5h-736q64 -351 77 -351h646q280 0 381 -304q30 -103 30 -175v-39q0 -215 -218 -252q-16 -4 -47 -4h-651q-63 0 -171 -5q-9 22 -47 219l8 4h784q117 0 149 56q18 44 18 59v43q-28 219 -214 219q-562 -5 -818 -5
q-9 8 -154 749q8 5 13 5q214 0 1087 4zM128 1421l155 -745q-44 -29 -133 -68q-150 719 -150 753q116 60 128 60zM574 1194h697v-8q-115 -56 -124 -56h-732q-10 0 -17 56q4 0 4 4q108 4 172 4zM304 659h839q125 0 167 -154q8 -32 8 -60v-8q0 -82 -77 -107q-23 -5 -38 -5h-13
l-9 5l5 8v47q-28 214 -197 214q-50 -4 -73 -4h-732v9zM355 295q9 -15 47 -214q-115 -64 -132 -64q-13 50 -43 214q122 64 128 64zM1314 73v-9q-111 -60 -201 -60h-30q-270 0 -779 -4v4q98 60 120 60h586q83 0 244 4v-4l9 4h30z" />
    <glyph glyph-name="six" unicode="6" horiz-adv-x="1474" 
d="M867 1434h301q13 0 47 -219h-4q-119 -4 -198 -4h-433q-167 0 -219 -129q-22 -52 -22 -116v-86l4 -21h675q285 0 382 -314q25 -105 25 -184v-22q0 -205 -201 -253q-37 -4 -60 -4h-357q-436 0 -605 588q-52 205 -52 356q0 282 206 374q49 17 121 30q249 4 390 4zM240 1348
q-107 -121 -107 -313v-22q0 -353 198 -687q80 -113 201 -193q129 -73 348 -73q99 0 344 4q-90 -64 -194 -64h-369q-367 0 -558 438q-103 279 -103 511q0 301 219 395zM640 1194h549v-9q-11 0 -111 -56h-657v4q42 61 219 61zM382 674v-4q70 -242 193 -314q91 -55 206 -55
q223 4 340 4q124 15 124 124v13q0 190 -167 232q-54 4 -56 4q-459 -4 -640 -4zM412 657h623q149 0 184 -159q9 -50 9 -60q0 -116 -129 -116l-8 4l4 30v9q0 170 -138 223l-77 9q-178 -5 -296 -5h-155q-13 0 -25 61z" />
    <glyph glyph-name="seven" unicode="7" horiz-adv-x="1236" 
d="M1070 1434q141 0 141 -146q0 -41 -162 -376q-270 -593 -381 -826h-219q-8 0 -8 8q505 1069 522 1113l-8 4h-758q-11 0 -47 219h4q170 0 916 4zM128 1421q9 -16 43 -214q-13 -12 -128 -64q-43 175 -43 218q116 60 128 60zM616 1194h300v-8q-11 0 -111 -56h-728v9
q11 0 103 51q294 4 436 4zM933 1186v-5q-498 -1060 -522 -1104q-7 0 -116 -56q0 5 -4 5l522 1104zM432 64h202v-8q-107 -56 -120 -56h-202v9q109 55 120 55z" />
    <glyph glyph-name="eight" unicode="8" horiz-adv-x="1537" 
d="M884 1434q302 0 413 -253q38 -113 38 -194q0 -125 -107 -188v-5q105 -56 137 -103q112 -125 112 -317q0 -244 -228 -288q-26 -4 -60 -4h-506q-287 0 -413 360q-17 81 -17 120v35q0 123 121 193v9q-224 101 -224 390v9q0 159 172 219q60 13 99 13q144 0 463 4zM185 1365h8
q-60 -81 -60 -154v-52q0 -170 125 -313q16 -9 77 -56l-125 -64q-82 34 -154 141q-56 134 -56 228v21q0 179 180 245q0 4 5 4zM343 1103v-21q0 -151 121 -210q40 -13 73 -13h485q137 0 137 116q0 236 -232 236h-416q-124 0 -159 -69q-9 -28 -9 -39zM580 1194h317
q196 0 228 -125q17 -53 17 -103q0 -73 -99 -86q-24 0 -30 -4l-4 8v13q0 232 -232 232h-399l-9 4q18 61 211 61zM288 751q-56 -84 -56 -176q0 -185 146 -373q125 -142 356 -142h172q129 0 352 4q-88 -64 -202 -64h-524q-222 0 -369 253q-60 142 -60 236v39q0 159 185 223z
M816 674h-245q-137 0 -137 -133q0 -182 184 -232q35 -8 73 -8h382q215 0 215 137v17q-28 223 -223 223q-157 -4 -249 -4zM623 657h450q128 0 181 -120q17 -53 17 -90v-13q0 -67 -86 -99q-18 -9 -52 -13l5 43v21q-32 206 -189 206h-485v9q26 56 159 56z" />
    <glyph glyph-name="nine" unicode="9" horiz-adv-x="1465" 
d="M743 1434q506 0 657 -704q21 -135 21 -223v-18q0 -403 -391 -403h-545q-12 0 -47 215l9 4h519q182 0 236 107q35 61 35 168v34q0 9 -9 9h-674q-268 0 -365 296q-39 121 -39 227q0 224 185 279q22 5 43 5h146q100 0 219 4zM210 1378q-77 -89 -77 -227v-18q0 -247 159 -433
q120 -95 245 -95h652v-8q-116 -56 -124 -56h-657q-272 0 -374 313q-34 114 -34 219v5q0 233 210 300zM339 1069q0 -125 86 -219q62 -47 125 -47q152 4 240 4h404q8 0 8 9q-39 183 -167 317q-108 78 -206 78h-365q-125 0 -125 -142zM799 1194q274 0 373 -335q4 -24 4 -35
h-141q-7 0 -69 138q-116 167 -292 167h-296l-9 4q19 61 138 61h292zM1215 597l4 -9q0 -175 -94 -232q-31 -13 -73 -25q0 4 -4 4q38 61 38 197q45 33 129 65zM412 296q17 -36 47 -214l-128 -69q-9 21 -48 219zM1151 77v-8q-125 -65 -241 -65h-68q-168 0 -481 -4v9
q111 55 120 55h455q162 0 215 13z" />
    <glyph glyph-name="colon" unicode=":" horiz-adv-x="557" 
d="M212 1130q116 -28 116 -148q-13 -76 -76 -76q-108 31 -108 132v28q0 55 68 64zM136 1106q-12 -37 -12 -56q0 -110 100 -156q21 -4 24 -4v-8q-106 -52 -124 -52q-124 28 -124 152q0 80 100 108q18 16 36 16zM332 550q88 0 112 -136v-12q-13 -72 -60 -72h-24q-61 0 -96 108
q-4 5 -4 28v4q0 60 48 80h24zM252 526v-4q-12 -39 -12 -48q0 -104 96 -156q32 -4 32 -12q-101 -53 -124 -56q-82 0 -120 112q-4 16 -4 32v24q0 66 132 108z" />
    <glyph glyph-name="semicolon" unicode=";" horiz-adv-x="557" 
d="M212 838q96 0 116 -144q-10 -76 -68 -76h-16q-100 35 -100 132v24q0 56 68 64zM132 818h4q-12 -39 -12 -56q0 -112 100 -156q28 -5 28 -12q-100 -52 -112 -52h-24q-79 0 -112 124q-4 4 -4 32q0 72 116 108q0 4 16 12zM252 286h148q14 0 28 -436l-8 -4h-80q-13 0 -32 124
q-4 0 -64 312zM224 278q80 -372 88 -432q-35 -23 -120 -64q-8 20 -92 436q117 60 124 60zM336 -170h64v-8q-108 -52 -116 -52h-64v8q108 52 116 52z" />
    <glyph glyph-name="semicolon" unicode="&#x37e;" horiz-adv-x="557" 
d="M212 838q96 0 116 -144q-10 -76 -68 -76h-16q-100 35 -100 132v24q0 56 68 64zM132 818h4q-12 -39 -12 -56q0 -112 100 -156q28 -5 28 -12q-100 -52 -112 -52h-24q-79 0 -112 124q-4 4 -4 32q0 72 116 108q0 4 16 12zM252 286h148q14 0 28 -436l-8 -4h-80q-13 0 -32 124
q-4 0 -64 312zM224 278q80 -372 88 -432q-35 -23 -120 -64q-8 20 -92 436q117 60 124 60zM336 -170h64v-8q-108 -52 -116 -52h-64v8q108 52 116 52z" />
    <glyph glyph-name="less" unicode="&#x3c;" horiz-adv-x="1047" 
d="M828 1092h12l24 -136q-20 -16 -584 -312v-8q3 -14 200 -92q19 -12 516 -228l28 -132q-4 0 -4 -4q-765 352 -856 404q-24 36 -24 60v12q0 55 132 112q23 16 556 324zM136 708q-16 -26 -16 -60q0 -93 188 -156q675 -317 700 -332v-4q-8 0 -112 -56q-817 376 -860 404
q-36 36 -36 72v24q0 49 136 108z" />
    <glyph glyph-name="equal" unicode="=" horiz-adv-x="1065" 
d="M928 988q4 -10 28 -128l-8 -4h-776q-13 0 -32 124l8 4q523 4 780 4zM120 976h4q20 -112 20 -128q-111 -56 -120 -56h-4q-20 112 -20 128q108 56 120 56zM932 840v-8q-108 -52 -116 -52h-520q-80 0 -240 -4v4q92 56 108 56q133 0 768 4zM1024 512q8 -25 28 -128l-8 -4
h-776q-12 0 -32 124q8 4 12 4q228 0 776 4zM216 500h4q0 -15 24 -124q-108 -60 -124 -60q-24 101 -24 124v4q112 56 120 56zM1028 364v-8q-105 -52 -112 -52h-220q-173 0 -548 -4v8q108 52 116 52h244q180 0 520 4z" />
    <glyph glyph-name="greater" unicode="&#x3e;" horiz-adv-x="1070" 
d="M120 1124q4 -8 28 -136q-52 -29 -120 -60q-28 105 -28 140q108 56 120 56zM140 1124h4q790 -358 848 -396q32 -37 32 -68v-16q0 -41 -160 -120l-536 -312q-28 105 -28 140q563 303 584 320q0 11 -412 184l-304 136zM160 972q661 -285 688 -304l-112 -60
q-687 300 -692 300v8q7 0 116 56zM276 340q8 -8 32 -136l-120 -64q-28 105 -28 140z" />
    <glyph glyph-name="question" unicode="?" horiz-adv-x="1317" 
d="M853 1434q307 0 411 -344q13 -58 17 -131q0 -206 -186 -263q-34 -9 -81 -9h-348q-85 0 -85 -59v-4l13 -89h-157q-13 0 -30 148v4q0 178 195 178h340q134 0 153 81q4 36 4 55q-33 212 -178 212h-722q-16 0 -51 213l9 4h76q247 0 620 4zM127 1421q9 -16 43 -212
q-27 -18 -128 -63q-42 176 -42 216q115 59 127 59zM199 1196h709q150 0 174 -207q0 -102 -106 -102h-21l-9 4l4 21q-22 221 -169 221h-705v8q115 55 123 55zM429 819q-39 -61 -39 -140q0 -30 22 -149l-128 -68q-25 95 -25 157q0 145 165 200h5zM1069 670v-8
q-97 -55 -182 -55h-280q-9 0 -9 8v13q0 38 47 38h310q36 0 114 4zM433 513h136v-8q-101 -51 -128 -51q-18 -4 -68 -4h-55v4q93 59 115 59zM560 318q106 0 123 -157q-10 -76 -64 -76h-25q-106 36 -106 144v17q12 72 72 72zM479 297q0 -4 5 -4q-17 -36 -17 -55
q0 -118 106 -166q29 -6 29 -13q-104 -59 -131 -59q-104 0 -132 153v25q0 63 119 106q0 4 21 13z" />
    <glyph glyph-name="at" unicode="@" horiz-adv-x="1551" 
d="M714 1424h477q18 0 59 -255q114 -526 159 -782h-4q-294 -4 -473 -4h-105q-203 0 -295 268q-18 35 -27 164q0 156 127 204q31 5 50 5h296q15 0 68 -305q38 -184 50 -195h141q9 0 9 9q-141 698 -150 723h-450q-251 0 -332 -250q-14 -63 -14 -114v-32q0 -290 196 -527
q167 -173 359 -173h595q12 0 41 -159l-9 -5h-582q-391 0 -641 455q-95 233 -95 405v63q0 280 218 437q84 68 332 68zM309 1329q-168 -177 -168 -437q0 -440 336 -759q210 -159 455 -159q295 4 491 4h41v-9q-123 -59 -132 -59h-582q-382 0 -632 427q-118 255 -118 460
q0 399 305 532h4zM691 1238h359v-10q-123 -59 -132 -59h-441l-31 -4v9q90 64 245 64zM1082 1228l141 -677l-9 -4h-105q-15 0 -95 441q-6 0 -14 54h-27q-9 0 -32 118q124 68 141 68zM536 983q-50 -75 -50 -182q0 -201 146 -359q82 -77 173 -77h577v-9q-113 -60 -164 -60h-554
q-216 0 -309 346q-9 53 -9 91q0 189 177 245q0 5 13 5zM627 778q0 -165 137 -245q29 -9 41 -9h154q9 0 9 9q-68 358 -81 368h-141q-119 0 -119 -123zM732 878h109v-9q-111 -54 -118 -54h-59q-9 0 -9 9q23 54 77 54zM877 874q10 -28 69 -327l-9 -5h-137q-17 0 -59 264z" />
    <glyph glyph-name="A" unicode="A" horiz-adv-x="1362" 
d="M571 1433h17q62 0 177 -190q582 -836 799 -1154l-8 -4h-195q-34 38 -232 333q-13 5 -13 9q-78 -4 -114 -4h-381q-8 0 -8 8q40 165 51 165h321l13 8q-317 470 -355 516h-9q-275 -994 -292 -1035q-84 -5 -126 -5h-60q-8 0 -8 13q359 1265 376 1310q24 30 47 30zM507 1412
l-384 -1336q-115 -55 -123 -55v4q355 1251 376 1311q0 20 131 76zM638 1082h13q26 -43 313 -461l-9 -4h-160q-18 16 -203 292q46 156 46 173zM634 588q-37 -174 -59 -174l-106 -55q0 5 -4 5q42 173 55 173q105 51 114 51zM609 406h469v-9q-109 -55 -118 -55h-470v9z
M1116 402l220 -322q-114 -63 -131 -63h-5q-40 65 -211 313v12zM1361 68h182v-5q-97 -59 -118 -59h-182v9zM144 63h169v-8l-119 -55h-173v8q114 55 123 55z" />
    <glyph glyph-name="B" unicode="B" horiz-adv-x="1551" 
d="M946 1434q318 0 420 -304q17 -80 17 -120v-38q-6 -125 -103 -163v-13q119 -65 137 -103q111 -122 111 -325q0 -185 -154 -257q-52 -25 -133 -25h-616q-66 0 -201 -5q-30 115 -274 1344l8 5h326q187 0 462 4zM128 1421l274 -1340q-115 -64 -132 -64q-231 1117 -270 1344
q117 60 128 60zM372 1211v-4q163 -824 184 -903h133q188 0 480 4q114 0 162 94q9 17 9 47q0 145 -129 214q-43 18 -102 18h-291q-66 0 -180 -5q-9 23 -39 180l9 4h270q303 0 303 35q30 31 30 81q0 235 -256 235h-583zM800 1194h103q230 0 266 -102q21 -64 21 -103v-26
q0 -81 -111 -81h-9q-8 0 -8 8v5q0 171 -125 218q-46 17 -137 17h-389q-14 0 -17 60h4q255 4 402 4zM578 852l38 -176q-6 -6 -107 -55q-12 29 -38 179q100 52 107 52zM638 659h488q170 0 192 -205v-5q0 -84 -89 -111q-32 -8 -43 -8q0 4 -5 4q9 20 9 43q0 155 -146 214
q-55 8 -72 8q-332 -4 -454 -4v9q108 55 120 55zM1310 68q-88 -64 -201 -64h-47q-264 0 -758 -4v4q98 60 120 60h501q138 0 385 4z" />
    <glyph glyph-name="C" unicode="C" horiz-adv-x="1479" 
d="M1151 1429q16 0 51 -214q-4 0 -4 -4q-262 -4 -394 -4h-196q-189 0 -257 -202q-9 -39 -17 -111q0 -304 231 -509q107 -86 239 -86h561l21 5q9 -22 47 -218l-8 -5h-586q-315 0 -552 373q-137 255 -137 492v21q0 315 256 432q49 30 356 30h389zM278 1343
q-145 -148 -145 -355v-64q0 -267 184 -552q235 -312 534 -312q258 4 437 4h120v-8q-116 -56 -124 -56h-599q-254 0 -484 282q-201 290 -201 578v38q0 327 274 445h4zM655 1189h522v-8q-116 -56 -125 -56h-598v5q48 59 201 59z" />
    <glyph glyph-name="D" unicode="D" horiz-adv-x="1492" 
d="M158 1429h646q282 0 509 -317q155 -259 155 -513v-26q0 -340 -274 -466q-77 -21 -137 -21h-462q-64 0 -171 -5q-47 202 -274 1344zM128 1420l274 -1339q-115 -64 -132 -64q-236 1139 -270 1344q117 59 128 59zM372 1211v-4q146 -737 184 -903h278q300 0 300 34
q154 82 154 299q0 287 -231 497q-119 77 -210 77h-475zM800 1194q340 0 458 -441q8 -73 8 -120v-4q0 -237 -201 -300v5q73 95 73 239q0 240 -184 441q-122 116 -261 116h-282q-14 0 -17 59h4q254 5 402 5zM1138 73v-9q-115 -60 -197 -60q-136 0 -637 -4v4q97 60 120 60h628
q10 0 18 4q4 0 4 -4z" />
    <glyph glyph-name="E" unicode="E" horiz-adv-x="1451" 
d="M1125 1438q11 -33 47 -215q-4 0 -4 -4q-287 -4 -417 -4h-378v-5q134 -683 185 -905h794q14 -10 52 -215l-9 -4h-966q-14 0 -60 270q-8 16 -219 1073l9 5q726 4 966 4zM129 1425q8 -29 274 -1343q-115 -65 -133 -65q-244 1189 -270 1348q116 60 129 60zM395 1198h747v-9
q-109 -56 -120 -56h-610q-17 0 -17 65zM610 863h583q15 0 43 -176l-8 -4h-408q-66 0 -180 -5q-9 27 -39 181zM579 854q13 -32 39 -176q-6 -6 -107 -56q-9 17 -39 181q100 51 107 51zM640 661h566v-9q-6 0 -107 -51q-472 -4 -580 -4v8q109 56 121 56zM1378 69v-9l-120 -56
h-193q-265 0 -760 -4v9q107 55 120 55h365q185 0 588 5z" />
    <glyph glyph-name="F" unicode="F" horiz-adv-x="1214" 
d="M1040 1434h26q16 0 51 -214q-4 0 -4 -4q-135 -5 -201 -5h-540v-4l223 -1121h-167q-14 0 -73 329q-47 209 -205 1010l8 5q577 4 882 4zM128 1421h5q51 -273 269 -1340q-115 -64 -132 -64q-244 1186 -270 1344q116 60 128 60zM394 1194h698v-8q-116 -56 -125 -56h-556
q-17 0 -17 64zM1143 843q8 -6 43 -188l-9 -4h-531q-8 0 -42 184l8 4h522zM582 835q9 -21 39 -189q-91 -51 -107 -51h-5l-34 184zM1044 634h116v-9q-116 -56 -124 -56h-509v9q7 0 107 51q267 5 410 5zM424 64h145v-8q-115 -56 -124 -56h-141v4q98 60 120 60z" />
    <glyph glyph-name="G" unicode="G" horiz-adv-x="1524" 
d="M1155 1429q13 0 47 -218h-4q-141 -4 -218 -4h-372q-186 0 -253 -193q-17 -58 -17 -107v-51q0 -237 197 -445q120 -112 269 -112h462l13 9q-68 341 -77 364q-7 4 -17 4h-475q-13 0 -43 175l9 5h663q9 0 69 -308l94 -462l-9 -5h-654q-320 0 -557 381q-132 245 -132 496
q0 326 256 441q49 30 356 30h393zM278 1343q-145 -147 -145 -359v-51q0 -331 244 -638q220 -235 474 -235q293 4 492 4h133v-8q-115 -56 -124 -56h-667q-290 0 -535 355q-150 267 -150 514v21q0 337 274 453h4zM650 1189h527v-8q-12 0 -112 -56h-611v5q52 59 196 59z
M637 847h13q0 -16 35 -175q-116 -64 -133 -64q-34 152 -34 175zM706 655h449v-9q-5 0 -107 -51q-352 -5 -466 -5v9q115 56 124 56zM1189 646h5q0 -27 64 -321l-9 -4h-132q-11 0 -43 192q-3 0 -17 69q115 64 132 64z" />
    <glyph glyph-name="H" unicode="H" horiz-adv-x="1579" 
d="M1052 1436h158q15 0 85 -393q9 -24 197 -953l-9 -4h-162q-11 0 -64 299l-64 290q-5 0 -13 5q-278 -5 -432 -5h-107q-8 0 -42 189q4 0 4 4q266 4 427 4h116q8 0 8 9q-68 324 -111 551zM158 1432h158q14 0 43 -179l240 -1163l-9 -4q-126 -5 -167 -5q-235 1139 -273 1347z
M1133 893l-9 -4h-128q-17 0 -47 197q-56 241 -56 282l129 60zM128 1424q9 -25 274 -1343l-128 -68q-274 1307 -274 1351q115 60 128 60zM577 859h4l35 -188q-100 -51 -107 -51q-30 122 -39 188q89 51 107 51zM641 658h509v-8q-115 -56 -124 -56h-509v9q116 55 124 55z
M1180 650q111 -526 115 -569l-128 -64q-90 403 -115 573q115 60 128 60zM1321 68h145v-8q-115 -56 -124 -56h-141v9q110 55 120 55zM423 64h146v-8q-113 -56 -120 -56h-145v9q112 55 119 55z" />
    <glyph glyph-name="I" unicode="I" horiz-adv-x="657" 
d="M164 1438h159q16 0 52 -224q8 -28 232 -1124l-9 -4q-145 -4 -167 -4q-242 1164 -276 1352zM133 1429q48 -214 276 -1347l-129 -69q-9 21 -280 1352q126 64 133 64zM431 65h146v-9q-111 -56 -121 -56h-146v9q110 56 121 56z" />
    <glyph glyph-name="J" unicode="J" horiz-adv-x="1065" 
d="M701 1432h158q17 0 47 -197q137 -613 137 -756q0 -394 -445 -394h-397q-12 0 -51 214l8 4h381q221 0 282 112q34 55 34 149q0 90 -163 864zM671 1423q167 -767 167 -863q0 -154 -120 -209q-8 0 -47 -13v4q34 67 34 150q0 81 -141 756q-21 100 -21 111q64 36 128 64z
M128 295q9 -15 47 -214q-115 -64 -132 -64q-13 50 -43 214q64 36 128 64zM769 81q-83 -77 -376 -77q-41 -4 -316 -4v4q98 60 120 60h320q165 0 252 17z" />
    <glyph glyph-name="K" unicode="K" horiz-adv-x="1614" 
d="M1039 1438h257q9 -1 9 -9q-67 -66 -575 -648v-8l871 -683l-8 -4h-254q-745 595 -781 631q-26 52 -26 103v4q0 31 172 223zM159 1434h159q13 0 77 -339q159 -771 202 -1009h-35q-45 0 -137 -4q-26 101 -275 1347zM129 1425h4q0 -15 270 -1343q-115 -65 -133 -65
q-236 1145 -270 1348q119 60 129 60zM992 1421v-4q-401 -470 -468 -554q-9 -28 -9 -39v-21q0 -107 146 -193q72 -64 653 -528v-9q-125 -60 -134 -60l-656 532l-65 322q367 440 434 507q91 47 99 47zM1348 69h249v-9q-116 -56 -125 -56h-244v9q107 56 120 56zM425 64h146v-8
q-116 -56 -125 -56h-141v9q108 55 120 55z" />
    <glyph glyph-name="L" unicode="L" horiz-adv-x="1371" 
d="M150 1434h168q14 0 47 -206q21 -89 189 -919l8 -4h735q11 0 51 -215l-8 -4h-911q-15 0 -90 416q-133 625 -189 932zM129 1425l275 -1343q-116 -65 -134 -65q-240 1165 -270 1348q116 60 129 60zM1322 69v-9q-113 -56 -120 -56h-172q-247 0 -729 -4v9q115 55 124 55h524
q140 0 373 5z" />
    <glyph glyph-name="M" unicode="M" horiz-adv-x="1744" 
d="M1094 1434q91 0 151 -197q21 -39 483 -1132l-9 -4h-155q-17 17 -394 918q-9 17 -13 17h-4q-10 0 -54 -336q-80 -523 -97 -583q-28 -37 -54 -37h-9q-72 0 -142 155l-449 801h-4q-9 -2 -9 -9q0 -168 -16 -926l-9 -5h-151q-8 0 -8 9l21 1220q0 105 59 105h12q78 0 147 -155
q482 -856 482 -864h9q11 0 54 327q88 585 109 671q33 25 50 25zM1023 1413q0 -4 4 -4q-13 0 -151 -956h-4q-19 22 -92 159q101 679 117 730q17 19 126 71zM168 1409v-4q-13 -27 -13 -38l-25 -1275l-126 -63q0 5 -4 5q0 3 4 33l21 1208q0 86 92 113q38 21 51 21zM352 981h9
q451 -826 494 -880q43 -38 76 -38v-8q-106 -55 -118 -55h-12q-83 0 -176 205q-270 476 -277 504v63q0 64 4 209zM1166 981l373 -885q-52 -30 -126 -67l-298 688l42 264h9zM1711 84v-9q-114 -54 -122 -54h-138v8q98 51 113 51q38 0 147 4zM294 80v-9q-111 -54 -118 -54h-138
v8q96 50 109 50q48 0 147 5z" />
    <glyph glyph-name="N" unicode="N" horiz-adv-x="1533" 
d="M207 1438h12q57 0 207 -169q8 0 725 -704q116 -114 123 -114h4q0 24 -194 983l8 4h148q14 0 59 -261q202 -963 202 -1021v-4q-11 -72 -63 -72q-62 0 -215 173q-157 148 -843 827h-9q0 -18 194 -983l-8 -4h-148q-13 0 -101 472q-101 466 -156 780v30q8 63 55 63z
M1063 1425h4q0 -10 185 -927h-4q-177 157 -177 185q-135 663 -135 683q114 59 127 59zM143 1421v-4q-12 -34 -12 -63q0 -40 253 -1261q-114 -63 -131 -63q-245 1180 -253 1256q0 83 110 118q0 7 33 17zM392 1033h4q86 -78 915 -898q71 -72 114 -72v-8q-112 -55 -126 -55
q-67 0 -232 186q-210 197 -628 619zM405 76h135v-9q-114 -54 -123 -54h-134v8q113 55 122 55z" />
    <glyph glyph-name="O" unicode="O" horiz-adv-x="1614" 
d="M554 1430h301q320 0 545 -352q133 -243 133 -494v-13q0 -327 -253 -455q-75 -34 -168 -34h-279q-293 0 -532 352q-151 259 -151 528q0 339 279 451q74 17 125 17zM275 1344q-142 -148 -142 -356v-52q0 -296 206 -592q222 -284 546 -284q30 0 287 4l30 5v-9
q-117 -60 -214 -60h-301q-290 0 -537 356q-150 268 -150 516v25q0 332 271 447h4zM339 902v-30q0 -287 241 -498q114 -73 223 -73h215q206 0 270 111q60 89 60 198v56q0 219 -180 425q-136 120 -275 120h-292q-179 0 -249 -206q-13 -55 -13 -103zM683 1194h189
q302 0 433 -378q26 -91 26 -172v-30q0 -213 -193 -283h-4v8q64 89 64 206v30q0 281 -228 477q-106 77 -223 77h-292v5q47 60 228 60z" />
    <glyph glyph-name="P" unicode="P" horiz-adv-x="1456" 
d="M912 1434q373 0 501 -454q17 -100 21 -175q0 -260 -227 -330q-43 -8 -77 -8h-21q-162 0 -428 -5q-18 65 -43 210l8 4h411q153 0 189 124q8 55 8 65q0 230 -188 329q-54 17 -81 17h-613v-4l223 -1121h-34q-45 0 -137 -5q-9 14 -274 1344l8 5h313q177 0 441 4zM128 1421
q18 -72 274 -1340q-115 -64 -132 -64q-236 1141 -270 1344q117 60 128 60zM565 1194h394q203 0 265 -239q9 -35 9 -73v-34q-22 -150 -146 -150q0 4 -4 4q17 40 21 94q0 193 -158 308q-65 26 -111 26h-424q-9 0 -21 56q4 0 4 4q108 4 171 4zM616 668q9 -23 43 -206
q-51 -32 -107 -55q-8 10 -43 209q100 52 107 52zM1190 449q-70 -68 -300 -68h-329v9q115 55 124 55h432q23 0 73 4zM424 64h145v-8q-115 -56 -124 -56h-141v9q107 55 120 55z" />
    <glyph glyph-name="Q" unicode="Q" horiz-adv-x="1713" 
d="M556 1434h301q337 0 564 -383q116 -235 116 -448v-47q0 -136 -73 -280q8 -17 228 -186v-4l-8 -4h-203q-15 0 -112 82h-8q-99 -82 -259 -82h-267q-304 0 -546 374q-138 249 -138 522q0 326 284 439q67 17 121 17zM276 1348q-143 -146 -143 -370v-39q0 -298 207 -594
q223 -285 547 -285q41 0 293 5l21 4v-9q-116 -60 -211 -60h-301q-290 0 -538 357q-151 269 -151 517v26q0 337 276 448zM340 909v-35q0 -286 241 -499q115 -74 224 -74h216q155 3 155 26l-362 297v5h224q214 -184 254 -216q64 100 64 220q0 287 -223 495q-123 86 -237 86
h-293q-177 0 -246 -198q-17 -52 -17 -107zM685 1197h189q303 0 435 -379q26 -92 26 -159v-39q0 -86 -43 -176h-9q-31 22 -82 68v61q0 4 5 4l-5 9v4q0 225 -180 426q-134 117 -259 117h-306v4q50 60 229 60zM779 624q244 -191 358 -288q0 -13 -56 -13h-142q-276 224 -289 228
v13q121 60 129 60zM1365 138h9q49 -41 69 -60q-51 -39 -134 -69q0 3 -64 60zM1477 65h211v-9q-116 -56 -125 -56h-211v9q116 56 125 56z" />
    <glyph glyph-name="R" unicode="R" horiz-adv-x="1717" 
d="M933 1434q353 0 488 -437q26 -105 26 -184v-38q0 -182 -150 -278v-9q398 -394 398 -398v-4h-240l-368 381q-267 -5 -406 -5q-30 132 -39 189l9 4h406q147 0 189 73q21 51 25 115q0 176 -115 308q-84 60 -154 60h-630v-4l223 -1121h-4q-145 -5 -167 -5q-26 101 -274 1344
l8 5h548q95 0 227 4zM128 1421h5q43 -229 269 -1340q-115 -64 -132 -64q-231 1120 -270 1344q120 60 128 60zM788 1194h179q185 0 253 -175q30 -103 30 -163v-30q0 -126 -128 -150h-13l-5 9q13 28 13 68v35q0 207 -154 316q-65 26 -111 26h-441q-14 0 -17 60h4q249 4 390 4z
M612 646h13l34 -188q-100 -51 -107 -51q-38 157 -38 188q92 45 98 51zM685 445h364v-8q-116 -56 -124 -56h-364v9q115 55 124 55zM1087 441q338 -352 338 -360v-8l-128 -60l-338 359v9zM1460 68h227v-8q-116 -56 -125 -56h-226v9q115 55 124 55zM424 64h145v-8
q-115 -56 -124 -56h-141v9q107 55 120 55z" />
    <glyph glyph-name="S" unicode="S" horiz-adv-x="1488" 
d="M1147 1429h52q10 0 51 -213q-4 0 -4 -5q-130 -4 -192 -4h-593q-115 0 -115 -115q0 -174 140 -230q29 -5 47 -5h521q305 0 392 -354q17 -65 17 -123v-39q0 -176 -153 -239q-62 -17 -120 -17h-806q-14 0 -51 214l8 4h781q166 0 166 128v30q0 119 -106 192q-48 25 -128 25
h-52q-166 0 -426 -4q-294 0 -410 354q-17 104 -17 132q0 204 188 256q7 4 51 9q462 4 759 4zM200 1365q-68 -86 -68 -205q0 -284 239 -452q102 -51 192 -51h525q132 0 175 -149q8 -41 8 -64v-9q0 -80 -77 -107q-23 -4 -38 -4h-13l-8 4l4 9v43q-26 217 -196 217
q-50 -4 -73 -4h-414q-330 0 -435 354q-21 77 -21 141q0 191 166 264zM516 1190h704v-8q-108 -56 -119 -56h-730q0 64 145 64zM311 294q9 -25 47 -213q-114 -64 -132 -64q-34 151 -43 213q56 32 128 64zM1267 73v-9q-111 -60 -201 -60h-119q-212 0 -691 -4v9q115 55 124 55
h507q138 0 367 4q8 5 13 5z" />
    <glyph glyph-name="T" unicode="T" horiz-adv-x="1286" 
d="M1171 1438q9 0 47 -215l-8 -5q-240 -4 -383 -4h-22l-9 -4q229 -1113 229 -1124l-9 -4h-159q-16 0 -43 181l-198 951h-418q-10 0 -47 215l8 5q729 4 1012 4zM129 1425q9 -16 43 -215q-13 -12 -129 -65q-43 176 -43 220q116 60 129 60zM577 1197v-9q-116 -56 -125 -56h-375
v9l112 52q278 4 388 4zM827 1197h366v-9q-117 -56 -125 -56h-233q-10 0 -17 61zM603 1188q224 -1079 224 -1115l-130 -60l-228 1111q127 64 134 64zM848 60h147v-8q-108 -52 -117 -52h-142v9q99 51 112 51z" />
    <glyph glyph-name="U" unicode="U" horiz-adv-x="1524" 
d="M1154 1429h152q17 0 47 -194q139 -628 139 -761q0 -394 -482 -394h-25q-499 0 -647 440q-42 139 -190 901l8 4h165q11 0 68 -313q97 -502 144 -605q66 -136 207 -186q107 -29 220 -29q351 0 351 224v38q0 84 -144 769l-21 102zM1125 1421q169 -770 169 -880v-4
q0 -168 -161 -207l-4 8q34 43 34 123v17q0 91 -157 828q-8 43 -8 51q44 25 127 64zM127 1416h4q153 -833 220 -972q94 -222 287 -313q158 -72 368 -72q117 5 212 21q-119 -80 -330 -80h-47q-501 0 -651 448q-42 123 -190 909q114 59 127 59z" />
    <glyph glyph-name="V" unicode="V" horiz-adv-x="1596" 
d="M1564 1429v-4q-355 -1269 -384 -1324q-26 -21 -51 -21q-64 0 -165 169q-777 1116 -812 1172l9 4h198l715 -1036q10 0 106 368q173 627 190 672h194zM123 1421q51 -61 735 -1057q161 -230 199 -271q31 -30 68 -30v-8q-115 -55 -123 -55h-13q-69 0 -169 169l-820 1180v4
q0 4 123 68zM1344 1421v-5q-270 -980 -270 -989h-13q-67 103 -67 114q219 812 228 820q107 60 122 60z" />
    <glyph glyph-name="W" unicode="W" horiz-adv-x="2030" 
d="M1988 1432l8 -4q-284 -1200 -314 -1309q-34 -38 -72 -38q-77 0 -203 237q-146 226 -157 233h-4q-85 -383 -106 -441q-32 -29 -68 -29q-74 0 -157 156q-728 1122 -762 1187v4h199q19 -15 424 -661q234 -370 241 -373h9q0 11 93 373q-56 94 -411 653v8h203q35 -43 449 -725
q175 -284 195 -309q16 16 94 390l152 648h187zM682 1424l411 -648q-114 -68 -131 -68l-407 644v4q0 7 127 68zM1776 1424v-4q-22 -116 -225 -988h-4q-76 120 -76 136q165 741 182 797q116 59 123 59zM127 1420h4q463 -726 848 -1314q48 -42 89 -42v-5q-97 -59 -119 -59h-8
q-93 0 -187 182q-730 1124 -754 1174v4q114 60 127 60zM1093 750v-4l-76 -314h-4q-11 7 -81 119q33 144 43 144q106 55 118 55zM1254 509h5q10 -11 250 -390q57 -55 97 -55v-9q-112 -55 -131 -55q-88 0 -191 203q-72 99 -72 119z" />
    <glyph glyph-name="X" unicode="X" horiz-adv-x="1812" 
d="M1246 1434h214l8 -4q-395 -618 -406 -642q6 -16 723 -690l4 -8l-8 -4h-231l-583 556h-12q-46 -84 -347 -556h-86q-45 0 -137 -5q4 23 206 334l231 364v9l-664 637v5h236l531 -505zM128 1425l668 -637l-128 -69q-653 619 -668 638v9zM1207 1421v-8q-274 -446 -291 -458
q-47 39 -47 51q202 331 231 364q100 51 107 51zM788 762q-419 -663 -437 -685l-111 -51v4q399 635 436 685l112 51v-4zM967 616l557 -535q-115 -68 -133 -68q-2 6 -501 484q62 104 77 119zM1558 68h218v-4q-97 -60 -119 -60h-223v9q116 55 124 55zM372 64h206v-8
q-116 -56 -124 -56h-201v9q107 55 119 55z" />
    <glyph glyph-name="Y" unicode="Y" horiz-adv-x="1533" 
d="M1275 1434h211q8 -1 8 -9q-321 -650 -412 -828q73 -335 103 -515h-167q-13 0 -86 395q-29 150 -56 150l-717 798l8 5h224q4 -1 562 -627h13q267 563 309 631zM133 1425l743 -828v-9l-129 -60l-747 829q116 68 133 68zM1241 1421q-235 -501 -288 -588q-25 19 -60 64
q179 374 232 473q107 51 116 51zM889 575q8 -27 103 -498q-124 -64 -133 -64q-99 475 -99 498zM1009 60h146v-8q-11 0 -103 -52h-155v9q102 51 112 51z" />
    <glyph glyph-name="Z" unicode="Z" horiz-adv-x="1492" 
d="M1101 1429q115 0 132 -137q0 -56 -107 -209q0 -8 -465 -776v-4l9 -13q418 4 627 4h128q15 0 42 -175q6 0 9 -29l-9 -5h-972q-96 0 -115 145q0 41 157 286q403 672 414 695v5l-8 4h-747q-12 0 -47 200q9 5 13 5q177 0 939 4zM128 1416h4q0 -10 39 -200l-128 -69
q-8 0 -43 205q55 36 128 64zM909 1203v-9q-113 -55 -120 -55h-13q-227 0 -703 -4v8q108 56 119 56h601q37 0 116 4zM917 1190v-4q-550 -911 -550 -922l-4 -42v-4q20 -154 153 -154h137q262 0 797 4v-8q-115 -56 -123 -56h-350q-212 0 -610 -4q-84 0 -128 102q-9 31 -9 47
q0 56 103 209l465 772q82 49 119 60z" />
    <glyph glyph-name="bracketleft" unicode="[" horiz-adv-x="841" 
d="M160 1582h230q13 0 35 -134l-9 -5h-113l-13 -8q282 -1375 299 -1434q8 -4 17 -4q11 0 113 4q9 -25 30 -130q-4 0 -4 -4q-132 -5 -195 -5h-43q-10 0 -91 429q-30 127 -264 1287zM130 1573q26 -105 351 -1711q-53 -31 -130 -69q-329 1569 -351 1720zM321 1422h78v-9
q-8 0 -74 -35q-11 14 -13 39zM507 -155h212v-9q-117 -56 -126 -56h-212v9q117 56 126 56z" />
    <glyph glyph-name="backslash" unicode="\" horiz-adv-x="1151" 
d="M265 1457h14q46 -69 872 -1478v-9h-118q-16 11 -431 734q-431 731 -431 749q63 4 94 4zM142 1448h5q0 -11 857 -1478v-5q-3 -9 -142 -76q-805 1374 -862 1483v10zM1033 -54h94v-9q-118 -57 -128 -57h-94v9q118 57 128 57z" />
    <glyph glyph-name="bracketright" unicode="]" horiz-adv-x="791" 
d="M164 1577h229q12 0 56 -255l298 -1451q-4 0 -4 -5q-132 -4 -194 -4h-39q-12 0 -35 130l9 4h112q9 0 9 13q0 10 -290 1425h-125q-14 0 -34 139zM134 1568q26 -108 26 -138q-117 -60 -130 -60h-4q0 23 -26 134q127 64 134 64zM186 1417h82v-8q-111 -57 -121 -57h-87v9
q117 56 126 56zM302 1409l281 -1387l-8 -4h-104l-30 -9q-26 114 -273 1335q117 65 134 65zM454 -8q8 -28 30 -130q-116 -65 -134 -65h-4l-22 130zM505 -155h212v-9q-111 -56 -121 -56h-216v9q117 56 125 56z" />
    <glyph glyph-name="asciicircum" unicode="^" 
 />
    <glyph glyph-name="underscore" unicode="_" horiz-adv-x="1124" 
d="M1084 2q8 -19 20 -84l-8 -4q-610 -4 -940 -4q-16 63 -16 84l8 4h356q183 0 580 4zM112 -10h4q11 0 20 -84q-109 -60 -124 -60q-12 65 -12 84zM352 -106h724v-8q-101 -52 -112 -52h-728q-61 0 -188 -4v4q7 10 96 56q145 4 208 4z" />
    <glyph glyph-name="grave" unicode="`" horiz-adv-x="1196" 
d="M468 1434h450q9 -1 9 -9q-27 -102 -40 -102h-160v-14q39 -50 80 -147h165l9 -4q-28 -103 -36 -103h-102q-9 -1 -9 -8v-41q0 -228 -201 -285l-58 -8q0 -24 276 -361q205 -255 205 -258q0 -9 -9 -9h-115q-490 587 -495 605l-18 98q5 0 5 5l22 -5h45q167 0 213 134
q9 40 9 58v62q0 9 -9 9h-360q-9 0 -9 9q28 102 35 102h290q9 0 9 14q-86 147 -263 147h-116l-9 4q18 68 32 103q104 4 155 4zM290 1425q-22 -116 -62 -116q-1 -7 -98 -49v5q19 107 49 107q102 53 111 53zM281 1300h161q109 0 196 -111l-9 -4h-192q-73 49 -138 49h-147v9
q121 57 129 57zM758 1300h98v-4q0 -7 -71 -40q-27 32 -27 44zM339 1158l5 -9q-28 -95 -40 -102q-8 0 -121 -58q0 4 -4 4q28 116 67 116q86 42 93 49zM339 1033h325v-9q-120 -58 -129 -58h-325v9q120 58 129 58zM860 1033h58v-9q-58 -26 -67 -26v26q2 9 9 9zM696 1024v-31
q0 -123 -112 -169l-49 -13q0 4 -4 4q27 50 27 93v45q0 15 138 71zM397 779h5q0 -18 17 -93l-133 -71q-9 0 -22 98q0 10 133 66zM428 664q476 -578 477 -584v-9q-12 0 -125 -62h-9q-450 544 -476 583v5q126 67 133 67zM936 62h85v-9l-116 -53h-89v9q111 53 120 53z" />
    <glyph glyph-name="a" unicode="a" horiz-adv-x="1488" 
d="M540 1356h16q59 0 168 -180q551 -791 756 -1092l-8 -4h-184q-32 36 -220 316q-12 4 -12 8q-74 -4 -108 -4h-360q-8 0 -8 8q38 156 48 156h304l12 8q-300 444 -336 488h-8q-260 -940 -276 -980q-80 -4 -120 -4h-56q-8 0 -8 12q340 1197 356 1240q23 28 44 28zM480 1336
l-364 -1264q-108 -52 -116 -52v4q336 1183 356 1240q0 19 124 72zM604 1024h12q25 -41 296 -436l-8 -4h-152q-16 15 -192 276q44 148 44 164zM600 556q-35 -164 -56 -164l-100 -52q0 4 -4 4q39 164 52 164q100 48 108 48zM576 384h444v-8q-103 -52 -112 -52h-444v8z
M1056 380l208 -304q-108 -60 -124 -60h-4q-38 62 -200 296v12zM1288 64h172v-4q-91 -56 -112 -56h-172v8zM136 60h160v-8l-112 -52h-164v8q108 52 116 52z" />
    <glyph glyph-name="b" unicode="b" horiz-adv-x="1474" 
d="M884 1340q297 0 392 -284q16 -75 16 -112v-36q-5 -117 -96 -152v-12q112 -61 128 -96q104 -114 104 -304q0 -173 -144 -240q-49 -24 -124 -24h-576q-61 0 -188 -4q-28 108 -256 1256l8 4h304q175 0 432 4zM120 1328l256 -1252q-108 -60 -124 -60q-216 1044 -252 1256
q109 56 120 56zM348 1132v-4q152 -770 172 -844h124q175 0 448 4q107 0 152 88q8 16 8 44q0 135 -120 200q-41 16 -96 16h-272q-61 0 -168 -4q-8 22 -36 168l8 4h252q284 0 284 32q28 29 28 76q0 220 -240 220h-544zM748 1116h96q214 0 248 -96q20 -59 20 -96v-24
q0 -76 -104 -76h-8q-8 0 -8 8v4q0 160 -116 204q-43 16 -128 16h-364q-13 0 -16 56h4q238 4 376 4zM540 796l36 -164q-6 -6 -100 -52q-12 27 -36 168q93 48 100 48zM596 616h456q159 0 180 -192v-4q0 -78 -84 -104q-30 -8 -40 -8q0 4 -4 4q8 18 8 40q0 145 -136 200
q-51 8 -68 8q-310 -4 -424 -4v8q101 52 112 52zM1224 64q-82 -60 -188 -60h-44q-246 0 -708 -4v4q91 56 112 56h468q130 0 360 4z" />
    <glyph glyph-name="c" unicode="c" horiz-adv-x="1376" 
d="M1076 1336q15 0 48 -200q-4 0 -4 -4q-245 -4 -368 -4h-184q-177 0 -240 -188q-8 -37 -16 -104q0 -284 216 -476q100 -80 224 -80h524l20 4q8 -20 44 -204l-8 -4h-548q-295 0 -516 348q-128 238 -128 460v20q0 295 240 404q45 28 332 28h364zM260 1256
q-136 -138 -136 -332v-60q0 -249 172 -516q220 -292 500 -292q241 4 408 4h112v-8q-108 -52 -116 -52h-560q-237 0 -452 264q-188 271 -188 540v36q0 305 256 416h4zM612 1112h488v-8q-108 -52 -116 -52h-560v4q46 56 188 56z" />
    <glyph glyph-name="d" unicode="d" horiz-adv-x="1403" 
d="M148 1336h604q264 0 476 -296q144 -242 144 -480v-24q0 -318 -256 -436q-72 -20 -128 -20h-432q-59 0 -160 -4q-44 189 -256 1256zM120 1328l256 -1252q-108 -60 -124 -60q-220 1065 -252 1256q109 56 120 56zM348 1132v-4q136 -689 172 -844h260q280 0 280 32
q144 76 144 280q0 268 -216 464q-111 72 -196 72h-444zM748 1116q317 0 428 -412q8 -69 8 -112v-4q0 -222 -188 -280v4q68 89 68 224q0 224 -172 412q-114 108 -244 108h-264q-13 0 -16 56h4q238 4 376 4zM1064 68v-8q-108 -56 -184 -56q-127 0 -596 -4v4q91 56 112 56h588
q9 0 16 4q4 0 4 -4z" />
    <glyph glyph-name="e" unicode="e" horiz-adv-x="1335" 
d="M1048 1340q11 -31 44 -200q-4 0 -4 -4q-267 -4 -388 -4h-352v-4q124 -637 172 -844h740q13 -9 48 -200l-8 -4h-900q-13 0 -56 252q-8 15 -204 1000l8 4q677 4 900 4zM120 1328q8 -27 256 -1252q-108 -60 -124 -60q-228 1108 -252 1256q108 56 120 56zM368 1116h696v-8
q-101 -52 -112 -52h-568q-16 0 -16 60zM568 804h544q14 0 40 -164l-8 -4h-380q-61 0 -168 -4q-8 25 -36 168zM540 796q12 -30 36 -164q-6 -6 -100 -52q-8 15 -36 168q93 48 100 48zM596 616h528v-8q-6 0 -100 -48q-440 -4 -540 -4v8q101 52 112 52zM1284 64v-8l-112 -52
h-180q-246 0 -708 -4v8q100 52 112 52h340q173 0 548 4z" />
    <glyph glyph-name="f" unicode="f" horiz-adv-x="1151" 
d="M972 1340h24q15 0 48 -200q-4 0 -4 -4q-127 -4 -188 -4h-504v-4l208 -1048h-156q-13 0 -68 308q-44 195 -192 944l8 4q539 4 824 4zM120 1328h4q48 -256 252 -1252q-108 -60 -124 -60q-228 1108 -252 1256q108 56 120 56zM368 1116h652v-8q-108 -52 -116 -52h-520
q-16 0 -16 60zM1068 788q7 -5 40 -176l-8 -4h-496q-8 0 -40 172l8 4h488zM544 780q8 -19 36 -176q-84 -48 -100 -48h-4l-32 172zM976 592h108v-8q-108 -52 -116 -52h-476v8q7 0 100 48q250 4 384 4zM396 60h136v-8q-108 -52 -116 -52h-132v4q91 56 112 56z" />
    <glyph glyph-name="g" unicode="g" horiz-adv-x="1443" 
d="M1080 1336q12 0 44 -204h-4q-131 -4 -204 -4h-348q-173 0 -236 -180q-16 -55 -16 -100v-48q0 -221 184 -416q112 -104 252 -104h432l12 8q-64 318 -72 340q-7 4 -16 4h-444q-12 0 -40 164l8 4h620q8 0 64 -288l88 -432l-8 -4h-612q-299 0 -520 356q-124 229 -124 464
q0 305 240 412q45 28 332 28h368zM260 1256q-136 -137 -136 -336v-48q0 -309 228 -596q206 -220 444 -220q273 4 460 4h124v-8q-108 -52 -116 -52h-624q-270 0 -500 332q-140 249 -140 480v20q0 315 256 424h4zM608 1112h492v-8q-10 0 -104 -52h-572v4q49 56 184 56z
M596 792h12q0 -15 32 -164q-108 -60 -124 -60q-32 142 -32 164zM660 612h420v-8q-4 0 -100 -48q-329 -4 -436 -4v8q108 52 116 52zM1112 604h4q0 -26 60 -300l-8 -4h-124q-10 0 -40 180q-3 0 -16 64q108 60 124 60z" />
    <glyph glyph-name="h" unicode="h" horiz-adv-x="1443" 
d="M984 1344h148q14 0 80 -368q8 -22 184 -892l-8 -4h-152q-11 0 -60 280l-60 272q-4 0 -12 4q-260 -4 -404 -4h-100q-8 0 -40 176q4 0 4 4q249 4 400 4h108q8 0 8 8q-64 304 -104 516zM148 1340h148q13 0 40 -168l224 -1088l-8 -4q-118 -4 -156 -4q-220 1065 -256 1260z
M1060 836l-8 -4h-120q-16 0 -44 184q-52 226 -52 264l120 56zM120 1332q8 -23 256 -1256l-120 -64q-256 1223 -256 1264q108 56 120 56zM540 804h4l32 -176q-93 -48 -100 -48q-28 114 -36 176q83 48 100 48zM600 616h476v-8q-108 -52 -116 -52h-476v8q108 52 116 52z
M1104 608q104 -492 108 -532l-120 -60q-84 377 -108 536q108 56 120 56zM1236 64h136v-8q-108 -52 -116 -52h-132v8q103 52 112 52zM396 60h136v-8q-105 -52 -112 -52h-136v8q105 52 112 52z" />
    <glyph glyph-name="i" unicode="i" horiz-adv-x="602" 
d="M152 1336h148q15 0 48 -208q8 -26 216 -1044l-8 -4q-135 -4 -156 -4q-224 1081 -256 1256zM124 1328q44 -199 256 -1252l-120 -64q-8 19 -260 1256q117 60 124 60zM400 60h136v-8q-103 -52 -112 -52h-136v8q103 52 112 52z" />
    <glyph glyph-name="j" unicode="j" horiz-adv-x="1020" 
d="M656 1340h148q16 0 44 -184q128 -574 128 -708q0 -368 -416 -368h-372q-11 0 -48 200l8 4h356q208 0 264 104q32 52 32 140q0 84 -152 808zM628 1332q156 -718 156 -808q0 -144 -112 -196q-7 0 -44 -12v4q32 62 32 140q0 76 -132 708q-20 93 -20 104q60 33 120 60z
M120 276q8 -14 44 -200q-108 -60 -124 -60q-12 47 -40 200q60 33 120 60zM720 76q-78 -72 -352 -72q-38 -4 -296 -4v4q91 56 112 56h300q154 0 236 16z" />
    <glyph glyph-name="k" unicode="k" horiz-adv-x="1524" 
d="M968 1340h240q8 -1 8 -8q-62 -62 -536 -604v-8l812 -636l-8 -4h-236q-695 555 -728 588q-24 48 -24 96v4q0 29 160 208zM148 1336h148q12 0 72 -316q148 -718 188 -940h-32q-42 0 -128 -4q-24 95 -256 1256zM120 1328h4q0 -14 252 -1252q-108 -60 -124 -60
q-220 1067 -252 1256q111 56 120 56zM924 1324v-4q-373 -437 -436 -516q-8 -26 -8 -36v-20q0 -99 136 -180q67 -59 608 -492v-8q-116 -56 -124 -56l-612 496l-60 300q342 410 404 472q85 44 92 44zM1256 64h232v-8q-108 -52 -116 -52h-228v8q100 52 112 52zM396 60h136v-8
q-108 -52 -116 -52h-132v8q101 52 112 52z" />
    <glyph glyph-name="l" unicode="l" horiz-adv-x="1295" 
d="M140 1336h156q13 0 44 -192q20 -83 176 -856l8 -4h684q11 0 48 -200l-8 -4h-848q-14 0 -84 388q-124 582 -176 868zM120 1328l256 -1252q-108 -60 -124 -60q-224 1085 -252 1256q108 56 120 56zM1232 64v-8q-105 -52 -112 -52h-160q-231 0 -680 -4v8q108 52 116 52h488
q130 0 348 4z" />
    <glyph glyph-name="m" unicode="m" horiz-adv-x="1677" 
d="M1044 1368q87 0 144 -188q20 -38 460 -1080l-8 -4h-148q-16 16 -376 876q-8 16 -12 16h-4q-9 0 -52 -320q-76 -499 -92 -556q-27 -36 -52 -36h-8q-69 0 -136 148l-428 764h-4q-8 -1 -8 -8q0 -161 -16 -884l-8 -4h-144q-8 0 -8 8l20 1164q0 100 56 100h12q74 0 140 -148
q460 -816 460 -824h8q11 0 52 312q84 559 104 640q31 24 48 24zM976 1348q0 -4 4 -4q-13 0 -144 -912h-4q-18 21 -88 152q96 647 112 696q16 19 120 68zM160 1344v-4q-12 -25 -12 -36l-24 -1216l-120 -60q0 4 -4 4q0 4 4 32l20 1152q0 82 88 108q36 20 48 20zM336 936h8
q431 -788 472 -840q40 -36 72 -36v-8q-101 -52 -112 -52h-12q-79 0 -168 196q-257 453 -264 480v60q0 62 4 200zM1112 936l356 -844q-49 -29 -120 -64l-284 656l40 252h8zM1632 80v-8q-108 -52 -116 -52h-132v8q93 48 108 48q36 0 140 4zM280 76v-8q-105 -52 -112 -52h-132
v8q92 48 104 48q46 0 140 4z" />
    <glyph glyph-name="n" unicode="n" horiz-adv-x="1461" 
d="M196 1364h12q54 0 196 -160q8 0 688 -668q110 -108 116 -108h4q0 23 -184 932l8 4h140q13 0 56 -248q192 -913 192 -968v-4q-11 -68 -60 -68q-59 0 -204 164q-149 141 -800 784h-8q0 -17 184 -932l-8 -4h-140q-12 0 -96 448q-96 442 -148 740v28q8 60 52 60zM1008 1352h4
q0 -10 176 -880h-4q-168 149 -168 176q-128 629 -128 648q108 56 120 56zM136 1348v-4q-12 -33 -12 -60q0 -38 240 -1196q-108 -60 -124 -60q-232 1120 -240 1192q0 78 104 112q1 6 32 16zM372 980h4q81 -74 868 -852q67 -68 108 -68v-8q-107 -52 -120 -52q-64 0 -220 176
q-199 187 -596 588zM384 72h128v-8q-108 -52 -116 -52h-128v8q108 52 116 52z" />
    <glyph glyph-name="o" unicode="o" horiz-adv-x="1461" 
d="M516 1332h280q299 0 508 -328q124 -226 124 -460v-12q0 -305 -236 -424q-70 -32 -156 -32h-260q-273 0 -496 328q-140 242 -140 492q0 316 260 420q69 16 116 16zM256 1252q-132 -138 -132 -332v-48q0 -276 192 -552q207 -264 508 -264q29 0 268 4l28 4v-8
q-109 -56 -200 -56h-280q-270 0 -500 332q-140 249 -140 480v24q0 309 252 416h4zM316 840v-28q0 -267 224 -464q107 -68 208 -68h200q192 0 252 104q56 82 56 184v52q0 204 -168 396q-127 112 -256 112h-272q-167 0 -232 -192q-12 -51 -12 -96zM636 1112h176
q281 0 404 -352q24 -84 24 -160v-28q0 -198 -180 -264h-4v8q60 83 60 192v28q0 262 -212 444q-99 72 -208 72h-272v4q44 56 212 56z" />
    <glyph glyph-name="p" unicode="p" horiz-adv-x="1371" 
d="M852 1340q349 0 468 -424q16 -93 20 -164q0 -243 -212 -308q-40 -8 -72 -8h-20q-151 0 -400 -4q-16 60 -40 196l8 4h384q143 0 176 116q8 51 8 60q0 215 -176 308q-50 16 -76 16h-572v-4l208 -1048h-32q-42 0 -128 -4q-8 13 -256 1256l8 4h292q166 0 412 4zM120 1328
q16 -67 256 -1252q-108 -60 -124 -60q-220 1067 -252 1256q109 56 120 56zM528 1116h368q190 0 248 -224q8 -32 8 -68v-32q-21 -140 -136 -140q0 4 -4 4q16 37 20 88q0 181 -148 288q-61 24 -104 24h-396q-8 0 -20 52q4 0 4 4q101 4 160 4zM576 624q8 -21 40 -192
q-48 -30 -100 -52q-8 9 -40 196q93 48 100 48zM1112 420q-66 -64 -280 -64h-308v8q108 52 116 52h404q21 0 68 4zM396 60h136v-8q-108 -52 -116 -52h-132v8q100 52 112 52z" />
    <glyph glyph-name="q" unicode="q" horiz-adv-x="1591" 
d="M516 1332h280q313 0 524 -356q108 -218 108 -416v-44q0 -126 -68 -260q7 -15 212 -172v-4l-8 -4h-188q-14 0 -104 76h-8q-92 -76 -240 -76h-248q-282 0 -508 348q-128 230 -128 484q0 304 264 408q63 16 112 16zM256 1252q-132 -135 -132 -344v-36q0 -276 192 -552
q207 -264 508 -264q38 0 272 4l20 4v-8q-108 -56 -196 -56h-280q-269 0 -500 332q-140 249 -140 480v24q0 313 256 416zM316 844v-32q0 -266 224 -464q107 -68 208 -68h200q144 3 144 24l-336 276v4h208q199 -171 236 -200q60 92 60 204q0 266 -208 460q-113 80 -220 80
h-272q-164 0 -228 -184q-16 -49 -16 -100zM636 1112h176q282 0 404 -352q24 -85 24 -148v-36q0 -80 -40 -164h-8q-29 21 -76 64v56q0 4 4 4l-4 8v4q0 209 -168 396q-124 108 -240 108h-284v4q46 56 212 56zM724 580q226 -178 332 -268q0 -12 -52 -12h-132q-256 208 -268 212
v12q112 56 120 56zM1268 128h8q45 -37 64 -56q-47 -36 -124 -64q0 3 -60 56zM1372 60h196v-8q-108 -52 -116 -52h-196v8q108 52 116 52z" />
    <glyph glyph-name="r" unicode="r" horiz-adv-x="1623" 
d="M872 1340q329 0 456 -408q24 -98 24 -172v-36q0 -170 -140 -260v-8q372 -368 372 -372v-4h-224l-344 356q-250 -4 -380 -4q-28 123 -36 176l8 4h380q137 0 176 68q20 48 24 108q0 164 -108 288q-78 56 -144 56h-588v-4l208 -1048h-4q-135 -4 -156 -4q-24 95 -256 1256
l8 4h512q88 0 212 4zM120 1328h4q40 -214 252 -1252q-108 -60 -124 -60q-216 1047 -252 1256q112 56 120 56zM736 1116h168q172 0 236 -164q28 -96 28 -152v-28q0 -118 -120 -140h-12l-4 8q12 26 12 64v32q0 194 -144 296q-61 24 -104 24h-412q-13 0 -16 56h4q233 4 364 4z
M572 604h12l32 -176q-93 -48 -100 -48q-36 147 -36 176q86 42 92 48zM640 416h340v-8q-108 -52 -116 -52h-340v8q108 52 116 52zM1016 412q316 -329 316 -336v-8l-120 -56l-316 336v8zM1364 64h212v-8q-108 -52 -116 -52h-212v8q108 52 116 52zM396 60h136v-8
q-108 -52 -116 -52h-132v8q100 52 112 52z" />
    <glyph glyph-name="s" unicode="s" horiz-adv-x="1416" 
d="M1076 1340h48q10 0 48 -200q-4 0 -4 -4q-122 -4 -180 -4h-556q-108 0 -108 -108q0 -163 132 -216q27 -4 44 -4h488q287 0 368 -332q16 -61 16 -116v-36q0 -165 -144 -224q-57 -16 -112 -16h-756q-13 0 -48 200l8 4h732q156 0 156 120v28q0 112 -100 180q-45 24 -120 24
h-48q-156 0 -400 -4q-276 0 -384 332q-16 97 -16 124q0 191 176 240q7 4 48 8q434 4 712 4zM188 1280q-64 -81 -64 -192q0 -267 224 -424q96 -48 180 -48h492q124 0 164 -140q8 -38 8 -60v-8q0 -75 -72 -100q-22 -4 -36 -4h-12l-8 4l4 8v40q-24 204 -184 204q-47 -4 -68 -4
h-388q-309 0 -408 332q-20 73 -20 132q0 179 156 248zM484 1116h660v-8q-101 -52 -112 -52h-684q0 60 136 60zM292 276q8 -24 44 -200q-108 -60 -124 -60q-32 142 -40 200q52 29 120 60zM1188 68v-8q-104 -56 -188 -56h-112q-198 0 -648 -4v8q108 52 116 52h476q130 0 344 4
q8 4 12 4z" />
    <glyph glyph-name="t" unicode="t" horiz-adv-x="1173" 
d="M1088 1336q8 0 44 -200l-8 -4q-222 -4 -356 -4h-20l-8 -4q212 -1034 212 -1044l-8 -4h-148q-14 0 -40 168l-184 884h-388q-9 0 -44 200l8 4q677 4 940 4zM120 1324q8 -15 40 -200q-12 -11 -120 -60q-40 163 -40 204q108 56 120 56zM536 1112v-8q-108 -52 -116 -52h-348v8
l104 48q258 4 360 4zM768 1112h340v-8q-108 -52 -116 -52h-216q-9 0 -16 56zM560 1104q208 -1002 208 -1036l-120 -56l-212 1032q117 60 124 60zM788 56h136v-8q-100 -48 -108 -48h-132v8q92 48 104 48z" />
    <glyph glyph-name="u" unicode="u" horiz-adv-x="1443" 
d="M1092 1352h144q16 0 44 -184q132 -594 132 -720q0 -372 -456 -372h-24q-473 0 -612 416q-40 132 -180 852l8 4h156q11 0 64 -296q92 -474 136 -572q63 -129 196 -176q102 -28 208 -28q332 0 332 212v36q0 79 -136 728l-20 96zM1064 1344q160 -728 160 -832v-4
q0 -159 -152 -196l-4 8q32 41 32 116v16q0 86 -148 784q-8 40 -8 48q41 24 120 60zM120 1340h4q145 -789 208 -920q89 -210 272 -296q149 -68 348 -68q111 5 200 20q-112 -76 -312 -76h-44q-474 0 -616 424q-40 116 -180 860q108 56 120 56z" />
    <glyph glyph-name="v" unicode="v" horiz-adv-x="1524" 
d="M1480 1352v-4q-336 -1201 -364 -1252q-24 -20 -48 -20q-60 0 -156 160q-735 1055 -768 1108l8 4h188l676 -980q9 0 100 348q164 594 180 636h184zM116 1344q49 -57 696 -1000q152 -218 188 -256q29 -28 64 -28v-8q-108 -52 -116 -52h-12q-66 0 -160 160l-776 1116v4
q0 4 116 64zM1272 1344v-4q-256 -927 -256 -936h-12q-64 98 -64 108q208 768 216 776q101 56 116 56z" />
    <glyph glyph-name="w" unicode="w" horiz-adv-x="1910" 
d="M1876 1352l8 -4q-268 -1132 -296 -1236q-32 -36 -68 -36q-73 0 -192 224q-138 214 -148 220h-4q-80 -361 -100 -416q-30 -28 -64 -28q-70 0 -148 148q-687 1059 -720 1120v4h188q18 -14 400 -624q222 -350 228 -352h8q0 10 88 352q-53 89 -388 616v8h192q33 -41 424 -684
q165 -269 184 -292q15 15 88 368l144 612h176zM644 1344l388 -612q-108 -64 -124 -64l-384 608v4q0 7 120 64zM1676 1344v-4q-20 -109 -212 -932h-4q-72 113 -72 128q156 699 172 752q109 56 116 56zM120 1340h4q437 -685 800 -1240q45 -40 84 -40v-4q-91 -56 -112 -56h-8
q-87 0 -176 172q-689 1061 -712 1108v4q108 56 120 56zM1032 708v-4l-72 -296h-4q-10 7 -76 112q31 136 40 136q100 52 112 52zM1184 480h4q10 -10 236 -368q54 -52 92 -52v-8q-106 -52 -124 -52q-83 0 -180 192q-68 93 -68 112z" />
    <glyph glyph-name="x" unicode="x" horiz-adv-x="1695" 
d="M1164 1340h200l8 -4q-369 -577 -380 -600q6 -15 676 -644l4 -8l-8 -4h-216l-544 520h-12q-42 -78 -324 -520h-80q-42 0 -128 -4q3 21 192 312l216 340v8l-620 596v4h220l496 -472zM120 1332l624 -596l-120 -64q-610 578 -624 596v8zM1128 1328v-8q-256 -416 -272 -428
q-44 37 -44 48q189 309 216 340q93 48 100 48zM736 712q-391 -619 -408 -640l-104 -48v4q373 593 408 640l104 48v-4zM904 576l520 -500q-107 -64 -124 -64q-2 6 -468 452q57 97 72 112zM1456 64h204v-4q-91 -56 -112 -56h-208v8q108 52 116 52zM348 60h192v-8
q-108 -52 -116 -52h-188v8q100 52 112 52z" />
    <glyph glyph-name="y" unicode="y" horiz-adv-x="1434" 
d="M1188 1336h196q8 -1 8 -8q-299 -606 -384 -772q68 -311 96 -480h-156q-12 0 -80 368q-27 140 -52 140l-668 744l8 4h208q4 0 524 -584h12q249 524 288 588zM124 1328l692 -772v-8l-120 -56l-696 772q109 64 124 64zM1156 1324q-219 -467 -268 -548q-24 18 -56 60
q167 348 216 440q100 48 108 48zM828 536q8 -26 96 -464q-115 -60 -124 -60q-92 442 -92 464zM940 56h136v-8q-10 0 -96 -48h-144v8q94 48 104 48z" />
    <glyph glyph-name="z" unicode="z" horiz-adv-x="1412" 
d="M1032 1340q108 0 124 -128q0 -53 -100 -196q0 -8 -436 -728v-4l8 -12q392 4 588 4h120q14 0 40 -164q5 0 8 -28l-8 -4h-912q-90 0 -108 136q0 38 148 268q378 630 388 652v4l-8 4h-700q-11 0 -44 188q8 4 12 4q165 0 880 4zM120 1328h4q0 -9 36 -188l-120 -64
q-7 0 -40 192q51 34 120 60zM852 1128v-8q-105 -52 -112 -52h-12q-213 0 -660 -4v8q101 52 112 52h564q34 0 108 4zM860 1116v-4q-516 -854 -516 -864l-4 -40v-4q19 -144 144 -144h128q246 0 748 4v-8q-108 -52 -116 -52h-328q-198 0 -572 -4q-79 0 -120 96q-8 28 -8 44
q0 52 96 196l436 724q77 45 112 56z" />
    <glyph glyph-name="braceleft" unicode="{" horiz-adv-x="832" 
d="M279 1542h46q16 0 29 -108q-92 0 -92 -92q104 -521 104 -558v-4q0 -36 -37 -67q87 -64 87 -145q88 -436 113 -508q39 -58 116 -58q9 -23 25 -105l-8 -4h-67q-178 0 -220 371q-68 331 -88 375q-37 16 -70 20q-5 6 -21 104q62 9 62 50q-112 555 -112 592q0 137 133 137z
M154 1505q-25 -41 -25 -92v-17q0 -47 112 -583q-51 -29 -129 -58h-4q-108 539 -108 575v12q0 102 92 138q43 25 62 25zM175 759q8 -16 21 -104q-13 -11 -125 -62q-21 68 -21 100q31 26 125 66zM217 639q45 0 45 -13q-54 -31 -125 -62q-24 12 -41 12v8q112 55 121 55z
M283 601q104 -505 125 -579q64 -150 221 -150h12v-8q-111 -54 -125 -54q-176 0 -233 137q-25 53 -125 592z" />
    <glyph glyph-name="bar" unicode="|" horiz-adv-x="778" 
d="M248 1544h76q10 0 84 -396q32 -143 244 -1188l-8 -4h-76q-12 0 -80 368q-36 155 -248 1216zM220 1536l324 -1580q-108 -60 -124 -60q-284 1370 -320 1584zM564 -60h60v-8q-100 -52 -112 -52h-64v8q108 52 116 52z" />
    <glyph glyph-name="braceright" unicode="}" horiz-adv-x="827" 
d="M189 1551h21q167 0 218 -151q21 -79 129 -594q0 -20 80 -38q21 -88 21 -100q-63 -14 -63 -38v-12q113 -573 113 -586q0 -98 -84 -134q-45 -8 -96 -8h-4q-13 0 -25 113q92 0 92 79q-105 527 -105 561v17q0 26 38 54q0 8 -42 33q-33 0 -130 519q-14 93 -58 143
q-27 21 -92 33q-5 5 -21 105zM160 1543q8 -16 21 -105q-52 -30 -126 -67l-25 109q123 63 130 63zM210 1421q87 0 117 -121q102 -561 142 -561q0 -2 21 -25v-4q-121 -59 -129 -59q-45 28 -72 126q-92 478 -117 527q-46 54 -88 54v9q112 54 126 54zM474 697q0 -4 4 -4
q-9 -15 -9 -33v-26q0 -36 101 -539v-26q0 -45 -101 -54q-16 -12 -25 -12q-104 532 -104 565v20q0 55 104 93q0 4 30 16zM474 -6q8 -10 25 -104q-113 -63 -130 -63q-21 90 -21 104zM520 -127h67v-9q-98 -54 -172 -54h-13v8q106 55 118 55z" />
    <glyph glyph-name="asciitilde" unicode="~" 
d="M923 878v-156q-63 -72 -122 -97.5t-116 -25.5q-60 0 -177.5 48.5t-176.5 48.5q-51 0 -107.5 -28t-129.5 -112v156q64 73 123 99t114 26q64 0 181.5 -49.5t172.5 -49.5q52 0 108.5 28t129.5 112z" />
    <glyph glyph-name="exclamdown" unicode="&#xa1;" horiz-adv-x="672" 
 />
    <glyph glyph-name="cent" unicode="&#xa2;" horiz-adv-x="1139" 
 />
    <glyph glyph-name="sterling" unicode="&#xa3;" 
d="M748 1347q-72 31 -160 31h-2q-100 0 -190 -101q-84 -93 -84 -241q0 -15 1 -30q0 -135 53 -273h360v-60h-334q14 -30 31 -60q35 -63 35 -138q0 -161 -162 -375h402q130 0 189 132l49 -1l-103 -231h-719l1 50q187 238 187 418q0 77 -34 143q-17 32 -31 62h-161v60h135
q-58 143 -58 253q0 226 123.5 347t306.5 121h4q75 0 185.5 -14t110.5 -34v-161h-58q-5 61 -77 102z" />
    <glyph glyph-name="currency" unicode="&#xa4;" 
d="M350 560q41 -40 99 -57q29 -8 58 -8t58 8q58 17 99 57q40 41 57 99q9 29 9 58t-9 58q-17 58 -57 99q-41 40 -100 57q-29 8 -58 8t-58 -9q-58 -17 -98 -56q-39 -40 -56 -98q-10 -30 -10 -60q0 -28 9 -56q16 -59 57 -100zM240 903l-118 118l80 81l118 -118q44 30 99 46
q44 14 89 14q41 0 83 -12q57 -17 102 -48l118 118l80 -81l-117 -117q31 -46 48 -102q12 -42 12 -85q0 -42 -12 -85q-17 -56 -48 -102l117 -117l-80 -81l-118 118q-45 -32 -101 -48q-42 -12 -85 -12q-42 0 -85 12q-57 16 -102 48l-118 -118l-80 81l118 117q-32 46 -48 103
q-12 42 -12 84q0 44 13 87q16 55 47 99z" />
    <glyph glyph-name="yen" unicode="&#xa5;" horiz-adv-x="1262" 
d="M547 225l-2 242q0 19 -1.5 35t-4.5 32l-484 1q-14 0 -21 6.5t-7 19.5t6.5 19t21.5 6h467l-121 172h-344q-17 0 -23.5 5.5t-6.5 18.5q0 14 6 19.5t22 5.5h307q-43 57 -108 155q-131 197 -227 197q-7 0 -13 5.5t-6 11.5q0 19 10.5 27.5t32.5 8.5q27 0 123 -8t164 -8h88
q33 0 41 -6.5t8 -26.5q0 -8 -15 -14t-38 -6q-6 0 -18.5 2t-18.5 2q-24 0 -37.5 -9.5t-13.5 -25.5q0 -18 16.5 -52t46.5 -77l158 -221q13 -19 33 -53q41 -70 71 -70q9 0 16.5 5t14.5 15l277 396q8 12 13 26.5t5 24.5q0 18 -10 27t-37 14q-15 2 -41 4q-47 3 -47 25
q0 15 8 22.5t25 7.5q3 0 15 -1q56 -7 108 -7h139q30 0 65 1t37 1q11 0 18.5 -4.5t8.5 -11.5q0 -28 -38 -34q-18 -3 -27 -5q-63 -15 -147 -117q-7 -9 -12 -15l-169 -206h323q15 0 24 -6t9 -17q0 -15 -6 -20.5t-23 -5.5h-366q-46 -57 -96.5 -112.5t-52.5 -59.5h511
q18 0 25.5 -5.5t7.5 -17.5q0 -14 -7 -21t-22 -7h-530q0 -11 -1 -30.5t-1 -29.5l2 -215q0 -114 5.5 -150t20.5 -44q30 -17 107.5 -19t77.5 -31q0 -12 -10 -20t-25 -8q-2 0 -35.5 4t-64.5 4q-91 0 -208.5 -4t-142.5 -4q-31 0 -40 4t-9 16t8 18.5t37 12.5q9 2 25 5q74 16 92 32
q17 13 24 47t7 102z" />
    <glyph glyph-name="brokenbar" unicode="&#xa6;" 
d="M427 371h160v-789h-160v789zM427 1578h160v-789h-160v789z" />
    <glyph glyph-name="section" unicode="&#xa7;" 
d="M545 321q56 16 97 53q73 65 73 166q0 5 -1 10h-2q-1 14 -4 27q-22 61 -113 127q-59 29 -126 29q-78 0 -125 -44.5t-47 -117.5q0 -123 248 -250zM466 -346q113 6 185 69q72 64 72 165q0 125 -316 276q-123 64 -175.5 137t-52.5 177q0 148 89 237q67 65 170 82l-40 19
q-123 64 -175.5 137t-52.5 177q0 148 89 237q82 79 216 86q8 1 17 1h3q66 0 163 -16.5t97 -41.5v-194h-51q-5 81 -80 132q-70 47 -149 51h-15q-78 0 -125 -44.5t-47 -117.5q0 -132 287 -269q149 -67 204.5 -143.5t55.5 -187.5q0 -171 -101 -282q-47 -39 -99 -64
q108 -56 154 -118q55 -77 55 -187q0 -171 -101 -283q-124 -102 -277 -105v1q-6 -1 -13 -1h-3q-66 0 -163 16.5t-97 41.5v194h51q5 -81 80 -132q68 -45 145 -50z" />
    <glyph glyph-name="dieresis" unicode="&#xa8;" horiz-adv-x="1024" 
d="M223 1289l71 72q13 12 25 12q11 0 27 -14l69 -73q10 -14 10 -25q0 -13 -12 -27l-69 -75q-17 -17 -25 -17q-14 0 -25 12l-76 86q-9 12 -9 23q0 13 14 26zM588 1289l71 72q13 12 25 12q11 0 27 -13l69 -74q10 -14 10 -25q0 -13 -12 -26l-69 -76q-17 -17 -25 -17
q-14 0 -25 12l-76 87q-9 11 -9 22q0 13 14 26z" />
    <glyph glyph-name="copyright" unicode="&#xa9;" horiz-adv-x="1674" 
d="M840 1456q145 0 280 -56.5t239 -160.5q102 -101 158.5 -238t56.5 -283q0 -147 -56.5 -282t-162.5 -240q-105 -105 -239 -159.5t-283 -54.5q-146 0 -278 55.5t-238 160.5q-106 104 -161.5 237.5t-55.5 282.5q0 148 55.5 283t159.5 238q102 104 238.5 160.5t286.5 56.5z
M357 1197q-95 -96 -146 -219.5t-51 -259.5q0 -137 51 -259t148 -219q98 -96 219 -147t256 -51q137 0 259.5 50.5t219.5 145.5q97 98 149 221.5t52 258.5q0 134 -52 259.5t-145 219.5q-96 96 -220 147.5t-258 51.5q-137 0 -262 -51.5t-220 -147.5zM865 223q-142 0 -264 68
t-186 185t-64 243t65.5 244t187.5 184.5t254 66.5q38 0 75 -6.5t76 -20.5q5 -1 9 -1q19 0 26 30h42l72 -198h-44q-52 94 -131 124q-72 26 -147 26h-15q-86 -8 -166.5 -71t-121.5 -177q-33 -90 -33 -184q0 -25 2 -50q11 -121 69.5 -224t149.5 -152q72 -40 166 -42
q124 0 194 56t70 126h53v-100q0 -46 -96.5 -86.5t-242.5 -40.5z" />
    <glyph glyph-name="ordfeminine" unicode="&#xaa;" horiz-adv-x="648" 
 />
    <glyph glyph-name="guillemotleft" unicode="&#xab;" horiz-adv-x="944" 
d="M174 479l342 303h14v-37l-205 -266l205 -266v-37h-14zM487 479l342 303h14v-37l-205 -266l205 -266v-37h-14z" />
    <glyph glyph-name="logicalnot" unicode="&#xac;" 
d="M87 767h840v-491l-1 -1h-98v392h-741v100z" />
    <glyph glyph-name="registered" unicode="&#xae;" horiz-adv-x="1674" 
d="M751 1099v-374l3 -8q23 -56 56 -81q29 -22 56 -22h6q31 4 61.5 38.5t46.5 97.5q13 50 13 103q0 13 -1 27q-4 67 -28 124.5t-56.5 76t-63.5 18.5h-93zM984 576l82 -116q100 -141 150 -141h34v-50h-346v50h45q30 0 30 22q0 29 -69 114l-75 102q-42 0 -84 42v-159
q0 -121 36 -121h53v-50h-316v50h43q37 0 37 121v538q0 121 -37 121h-43v70h356q64 -1 125 -42q60 -41 92.5 -114t32.5 -152q0 -78 -32 -150.5t-114 -134.5zM840 1456q145 0 280 -56.5t239 -160.5q102 -101 158.5 -238t56.5 -283q0 -147 -56.5 -282t-162.5 -240
q-105 -105 -239 -159.5t-283 -54.5q-146 0 -278 55.5t-238 160.5q-106 104 -161.5 237.5t-55.5 282.5q0 148 55.5 283t159.5 238q102 104 238.5 160.5t286.5 56.5zM357 1197q-95 -96 -146 -219.5t-51 -259.5q0 -137 51 -259t148 -219q98 -96 219 -147t256 -51
q137 0 259.5 50.5t219.5 145.5q97 98 149 221.5t52 258.5q0 134 -52 259.5t-145 219.5q-96 96 -220 147.5t-258 51.5q-137 0 -262 -51.5t-220 -147.5z" />
    <glyph glyph-name="macron" unicode="&#xaf;" horiz-adv-x="670" 
 />
    <glyph glyph-name="degree" unicode="&#xb0;" horiz-adv-x="674" 
d="M339 1372q-86 0 -147.5 -61t-61.5 -148t61 -147t148 -60t147 60t60 147t-60.5 148t-146.5 61zM339 1442q115 0 196 -81.5t81 -196.5q0 -114 -82 -196t-197 -82q-117 0 -197 81t-80 197t81.5 197t197.5 81z" />
    <glyph glyph-name="plusminus" unicode="&#xb1;" 
 />
    <glyph glyph-name="uni00B2" unicode="&#xb2;" 
 />
    <glyph glyph-name="uni00B3" unicode="&#xb3;" 
 />
    <glyph glyph-name="acute" unicode="&#xb4;" horiz-adv-x="1024" 
d="M607 1375q35 35 55.5 47t40.5 12q33 0 53.5 -20t20.5 -51q0 -22 -15.5 -42t-46.5 -40l-330 -203h-69z" />
    <glyph glyph-name="mu" unicode="&#xb5;" horiz-adv-x="1180" 
 />
    <glyph glyph-name="paragraph" unicode="&#xb6;" horiz-adv-x="1024" 
d="M929 1435v-70h-127v-1365h-82v1365h-166v-1365h-84v738q-174 8 -275.5 102.5t-101.5 245.5q0 157 107.5 253t285.5 96h443z" />
    <glyph glyph-name="periodcentered" unicode="&#xb7;" horiz-adv-x="508" 
d="M145 740l82 84q15 14 29 14q13 0 31 -16l80 -86q12 -16 12 -29q0 -15 -14 -31l-80 -88q-20 -20 -29 -20q-16 0 -29 14l-88 101q-10 13 -10 26q0 15 16 31z" />
    <glyph glyph-name="periodcentered" unicode="&#x2219;" horiz-adv-x="508" 
d="M145 740l82 84q15 14 29 14q13 0 31 -16l80 -86q12 -16 12 -29q0 -15 -14 -31l-80 -88q-20 -20 -29 -20q-16 0 -29 14l-88 101q-10 13 -10 26q0 15 16 31z" />
    <glyph glyph-name="cedilla" unicode="&#xb8;" horiz-adv-x="1024" 
d="M360 -290q85 -52 152 -52q66 0 94.5 21.5t28.5 66.5t-49 64q-40 16 -102 16q-16 0 -34 -2l48 176h63l-37 -104q32 4 62 5q86 0 134 -40.5t48 -113.5q0 -76 -58.5 -120.5t-160.5 -44.5q-109 0 -189 32v96z" />
    <glyph glyph-name="uni00B9" unicode="&#xb9;" 
 />
    <glyph glyph-name="ordmasculine" unicode="&#xba;" horiz-adv-x="718" 
 />
    <glyph glyph-name="guillemotright" unicode="&#xbb;" horiz-adv-x="944" 
d="M115 176h-14v37l205 266l-205 266v37h14l342 -303zM428 176h-14v37l205 266l-205 266v37h14l342 -303z" />
    <glyph glyph-name="onequarter" unicode="&#xbc;" horiz-adv-x="1708" 
 />
    <glyph glyph-name="onehalf" unicode="&#xbd;" horiz-adv-x="1964" 
 />
    <glyph glyph-name="threequarters" unicode="&#xbe;" horiz-adv-x="1708" 
 />
    <glyph glyph-name="questiondown" unicode="&#xbf;" horiz-adv-x="748" 
 />
    <glyph glyph-name="Agrave" unicode="&#xc0;" horiz-adv-x="1540" 
 />
    <glyph glyph-name="Aacute" unicode="&#xc1;" horiz-adv-x="1540" 
 />
    <glyph glyph-name="Acircumflex" unicode="&#xc2;" horiz-adv-x="1540" 
 />
    <glyph glyph-name="Atilde" unicode="&#xc3;" horiz-adv-x="1540" 
 />
    <glyph glyph-name="Adieresis" unicode="&#xc4;" horiz-adv-x="1540" 
 />
    <glyph glyph-name="Aring" unicode="&#xc5;" horiz-adv-x="1540" 
 />
    <glyph glyph-name="AE" unicode="&#xc6;" horiz-adv-x="2118" 
 />
    <glyph glyph-name="Ccedilla" unicode="&#xc7;" horiz-adv-x="1399" 
 />
    <glyph glyph-name="Egrave" unicode="&#xc8;" horiz-adv-x="1151" 
 />
    <glyph glyph-name="Eacute" unicode="&#xc9;" horiz-adv-x="1151" 
 />
    <glyph glyph-name="Ecircumflex" unicode="&#xca;" horiz-adv-x="1151" 
 />
    <glyph glyph-name="Edieresis" unicode="&#xcb;" horiz-adv-x="1151" 
 />
    <glyph glyph-name="Igrave" unicode="&#xcc;" horiz-adv-x="657" 
 />
    <glyph glyph-name="Iacute" unicode="&#xcd;" horiz-adv-x="657" 
 />
    <glyph glyph-name="Icircumflex" unicode="&#xce;" horiz-adv-x="657" 
 />
    <glyph glyph-name="Idieresis" unicode="&#xcf;" horiz-adv-x="657" 
 />
    <glyph glyph-name="Eth" unicode="&#xd0;" horiz-adv-x="1518" 
 />
    <glyph glyph-name="Ntilde" unicode="&#xd1;" horiz-adv-x="1554" 
 />
    <glyph glyph-name="Ograve" unicode="&#xd2;" horiz-adv-x="1614" 
 />
    <glyph glyph-name="Oacute" unicode="&#xd3;" horiz-adv-x="1614" 
 />
    <glyph glyph-name="Ocircumflex" unicode="&#xd4;" horiz-adv-x="1614" 
 />
    <glyph glyph-name="Otilde" unicode="&#xd5;" horiz-adv-x="1614" 
 />
    <glyph glyph-name="Odieresis" unicode="&#xd6;" horiz-adv-x="1614" 
 />
    <glyph glyph-name="multiply" unicode="&#xd7;" 
d="M507 618l-247 -247l-99 99l247 247l-247 248l99 98l247 -247l248 247l98 -99l-247 -247l247 -247l-99 -99z" />
    <glyph glyph-name="Oslash" unicode="&#xd8;" horiz-adv-x="1614" 
 />
    <glyph glyph-name="Ugrave" unicode="&#xd9;" horiz-adv-x="1501" 
 />
    <glyph glyph-name="Uacute" unicode="&#xda;" horiz-adv-x="1501" 
 />
    <glyph glyph-name="Ucircumflex" unicode="&#xdb;" horiz-adv-x="1501" 
 />
    <glyph glyph-name="Udieresis" unicode="&#xdc;" horiz-adv-x="1501" 
 />
    <glyph glyph-name="Yacute" unicode="&#xdd;" horiz-adv-x="1233" 
 />
    <glyph glyph-name="Thorn" unicode="&#xde;" horiz-adv-x="1120" 
 />
    <glyph glyph-name="germandbls" unicode="&#xdf;" horiz-adv-x="1251" 
 />
    <glyph glyph-name="agrave" unicode="&#xe0;" horiz-adv-x="922" 
 />
    <glyph glyph-name="aacute" unicode="&#xe1;" horiz-adv-x="922" 
 />
    <glyph glyph-name="acircumflex" unicode="&#xe2;" horiz-adv-x="922" 
 />
    <glyph glyph-name="atilde" unicode="&#xe3;" horiz-adv-x="922" 
 />
    <glyph glyph-name="adieresis" unicode="&#xe4;" horiz-adv-x="922" 
 />
    <glyph glyph-name="aring" unicode="&#xe5;" horiz-adv-x="922" 
 />
    <glyph glyph-name="ae" unicode="&#xe6;" horiz-adv-x="1454" 
 />
    <glyph glyph-name="ccedilla" unicode="&#xe7;" horiz-adv-x="905" 
 />
    <glyph glyph-name="egrave" unicode="&#xe8;" horiz-adv-x="909" 
 />
    <glyph glyph-name="eacute" unicode="&#xe9;" horiz-adv-x="909" 
 />
    <glyph glyph-name="ecircumflex" unicode="&#xea;" horiz-adv-x="909" 
 />
    <glyph glyph-name="edieresis" unicode="&#xeb;" horiz-adv-x="909" 
 />
    <glyph glyph-name="igrave" unicode="&#xec;" horiz-adv-x="514" 
 />
    <glyph glyph-name="iacute" unicode="&#xed;" horiz-adv-x="514" 
 />
    <glyph glyph-name="icircumflex" unicode="&#xee;" horiz-adv-x="514" 
 />
    <glyph glyph-name="idieresis" unicode="&#xef;" horiz-adv-x="514" 
 />
    <glyph glyph-name="eth" unicode="&#xf0;" horiz-adv-x="1139" 
 />
    <glyph glyph-name="ntilde" unicode="&#xf1;" horiz-adv-x="1108" 
 />
    <glyph glyph-name="ograve" unicode="&#xf2;" horiz-adv-x="1010" 
 />
    <glyph glyph-name="oacute" unicode="&#xf3;" horiz-adv-x="1010" 
 />
    <glyph glyph-name="ocircumflex" unicode="&#xf4;" horiz-adv-x="1010" 
 />
    <glyph glyph-name="otilde" unicode="&#xf5;" horiz-adv-x="1010" 
 />
    <glyph glyph-name="odieresis" unicode="&#xf6;" horiz-adv-x="1010" 
 />
    <glyph glyph-name="divide" unicode="&#xf7;" 
d="M428 1228q98 0 120 -136v-4q-10 -84 -68 -84q-97 0 -116 148q9 76 64 76zM356 1200q-8 -26 -8 -36v-28q0 -93 92 -140q20 -8 28 -8v-8q-98 -52 -124 -52q-76 0 -116 112q-4 16 -4 32v20q0 67 124 108q0 4 8 4v-4zM148 724h776q15 0 32 -128h-420q-123 0 -368 -4l-28 128z
M120 716q8 -10 28 -124q-35 -23 -120 -64q-8 12 -28 128zM172 576h756v-8l-104 -48q-635 -4 -768 -4v8q108 52 116 52zM620 296h4q89 0 116 -136v-8q-18 -76 -64 -76h-16q-79 0 -108 136v8q9 76 68 76zM544 276q0 -4 4 -4q-12 -26 -12 -56q0 -114 108 -156h16v-4
q-91 -56 -112 -56h-20q-78 0 -112 120q-4 15 -4 36q0 66 88 96q0 4 44 24z" />
    <glyph glyph-name="oslash" unicode="&#xf8;" horiz-adv-x="1010" 
 />
    <glyph glyph-name="ugrave" unicode="&#xf9;" horiz-adv-x="1059" 
 />
    <glyph glyph-name="uacute" unicode="&#xfa;" horiz-adv-x="1059" 
 />
    <glyph glyph-name="ucircumflex" unicode="&#xfb;" horiz-adv-x="1059" 
 />
    <glyph glyph-name="udieresis" unicode="&#xfc;" horiz-adv-x="1059" 
 />
    <glyph glyph-name="yacute" unicode="&#xfd;" horiz-adv-x="868" 
 />
    <glyph glyph-name="thorn" unicode="&#xfe;" horiz-adv-x="1010" 
 />
    <glyph glyph-name="ydieresis" unicode="&#xff;" horiz-adv-x="868" 
 />
    <glyph glyph-name="dotlessi" unicode="&#x131;" horiz-adv-x="514" 
d="M328 223q0 -173 100 -173h46v-50h-442v50h46q100 0 100 173v432q0 77 -111 77h-48v44q222 69 261 182h48v-735z" />
    <glyph glyph-name="circumflex" unicode="&#x2c6;" horiz-adv-x="1024" 
d="M221 1079l232 355h118l232 -355h-58l-233 216l-233 -216h-58z" />
    <glyph glyph-name="caron" unicode="&#x2c7;" horiz-adv-x="1024" 
d="M221 1434h58l233 -214l233 214h58l-232 -356h-118z" />
    <glyph glyph-name="uni02C9" unicode="&#x2c9;" horiz-adv-x="1024" 
d="M254 1195v125h516v-125h-516z" />
    <glyph glyph-name="breve" unicode="&#x2d8;" horiz-adv-x="1024" 
d="M219 1349h51q17 -73 75 -107t167 -34t166 33.5t74 107.5h51q-20 -133 -94 -201.5t-197 -68.5q-122 0 -197 69t-96 201z" />
    <glyph glyph-name="dotaccent" unicode="&#x2d9;" horiz-adv-x="1024" 
d="M422 1289l69 72q6 6 13 9t14 3q6 0 12.5 -3t12.5 -9l71 -76q5 -4 7 -10t2 -14q-1 -9 -3 -15t-8 -12l-71 -76q-12 -11 -16 -13.5t-7 -2.5q-10 0 -16.5 2.5t-10.5 8.5l-75 87q-4 4 -6 9.5t-2 13.5q0 6 3 12.5t11 13.5z" />
    <glyph glyph-name="ring" unicode="&#x2da;" horiz-adv-x="1024" 
d="M411 1257q0 -42 29 -71t71 -29t71 29t29 71q0 40 -29.5 69.5t-70.5 29.5t-70.5 -29.5t-29.5 -69.5zM335 1257q0 75 51 126t125 51q76 0 127.5 -51.5t51.5 -125.5q0 -75 -51.5 -126.5t-127.5 -51.5q-74 0 -125 51.5t-51 126.5z" />
    <glyph glyph-name="ogonek" unicode="&#x2db;" horiz-adv-x="1024" 
d="M640 0q-71 -62 -110.5 -119.5t-39.5 -112.5q0 -47 27 -75t73 -28q40 0 69.5 15.5t49.5 48.5l28 -16q-36 -63 -90.5 -97t-119.5 -34q-70 0 -114 35.5t-44 90.5q0 76 60.5 156.5t161.5 135.5h49z" />
    <glyph glyph-name="tilde" unicode="&#x2dc;" horiz-adv-x="1024" 
d="M808 1382q-20 -103 -68.5 -154t-126.5 -51h-4q-50 0 -113 23q-66 24 -114 24q-39 0 -60.5 -20.5t-33.5 -71.5h-54q19 106 68 158.5t129 52.5q46 -1 113 -24q64 -23 112 -23h4q36 0 58 20t36 66h54z" />
    <glyph glyph-name="hungarumlaut" unicode="&#x2dd;" horiz-adv-x="1024" 
d="M217 1079l144 273q24 44 45.5 63t46.5 19q28 0 48 -20t20 -47q0 -16 -10.5 -35t-30.5 -41l-205 -212h-58zM502 1079l144 273q24 44 45.5 63t46.5 19q28 0 48 -20t20 -47q0 -16 -10.5 -35t-30.5 -41l-205 -212h-58z" />
    <glyph glyph-name="endash" unicode="&#x2013;" horiz-adv-x="1108" 
d="M56 419v120h996v-120h-996z" />
    <glyph glyph-name="emdash" unicode="&#x2014;" horiz-adv-x="2048" 
d="M0 419v120h2048v-120h-2048z" />
    <glyph glyph-name="quoteleft" unicode="&#x2018;" horiz-adv-x="557" 
d="M319 1016q-44 0 -88.5 65.5t-44.5 151.5q0 109 71 226.5t139 117.5v-43q-73 -43 -87 -190q0 -119 129 -161v-42z" />
    <glyph glyph-name="quoteright" unicode="&#x2019;" horiz-adv-x="557" 
d="M238 1577q44 0 88.5 -65.5t44.5 -151.5q0 -109 -71 -226.5t-139 -117.5v43q73 43 87 190q0 119 -129 161v42z" />
    <glyph glyph-name="quotesinglbase" unicode="&#x201a;" horiz-adv-x="557" 
d="M238 281q44 0 88.5 -65.5t44.5 -151.5q0 -109 -71 -226.5t-139 -117.5v43q73 43 87 190q0 119 -129 161v42z" />
    <glyph glyph-name="quotedblleft" unicode="&#x201c;" horiz-adv-x="910" 
d="M145 1716h164q10 0 92 -440h-96q-12 0 -160 436v4zM457 1716h156q12 0 48 -212q4 -9 48 -224l-8 -4h-88q-13 0 -144 384q-10 12 -20 52zM121 1708q16 -28 160 -436q-35 -23 -120 -64q-12 11 -160 440zM429 1708l160 -436q-108 -60 -124 -60h-4q-69 173 -108 384l-12 68
q78 44 88 44zM301 1256h76v-8q-108 -52 -116 -52h-72v8q105 52 112 52zM609 1256h72v-8q-100 -48 -108 -48h-72v8q100 48 108 48z" />
    <glyph glyph-name="quotedblright" unicode="&#x201d;" horiz-adv-x="910" 
d="M144 1715h164q10 0 92 -440h-96q-12 0 -160 436v4zM456 1715h156q12 0 48 -212q4 -9 48 -224l-8 -4h-88q-13 0 -144 384q-10 12 -20 52zM120 1707q16 -28 160 -436q-35 -23 -120 -64q-12 11 -160 440zM428 1707l160 -436q-108 -60 -124 -60h-4q-69 173 -108 384l-12 68
q78 44 88 44zM300 1255h76v-8q-108 -52 -116 -52h-72v8q105 52 112 52zM608 1255h72v-8q-100 -48 -108 -48h-72v8q100 48 108 48z" />
    <glyph glyph-name="quotedblbase" unicode="&#x201e;" horiz-adv-x="910" 
d="M238 281q44 0 88.5 -65.5t44.5 -151.5q0 -109 -71 -226.5t-139 -117.5v43q73 43 87 190q0 119 -129 161v42zM591 281q44 0 88.5 -65.5t44.5 -151.5q0 -109 -71 -226.5t-139 -117.5v43q73 43 87 190q0 119 -129 161v42z" />
    <glyph glyph-name="dagger" unicode="&#x2020;" 
d="M486 1022q-8 97 -54 178q-57 101 -57 129q0 49 36 78.5t96 29.5q57 0 94.5 -27.5t37.5 -71.5q0 -32 -55 -137q-46 -85 -55 -179q96 8 177 54q101 57 129 57q49 0 79 -36t30 -96q0 -57 -27.5 -94.5t-72.5 -37.5q-32 0 -136 55q-85 46 -179 57q8 -176 110 -277
q-106 -460 -112 -974h-38q-6 514 -114 974q102 101 111 277q-96 -10 -178 -55q-101 -57 -129 -57q-49 0 -78.5 36t-29.5 96q0 57 27.5 94.5t71.5 37.5q32 0 137 -56q85 -46 179 -55z" />
    <glyph glyph-name="daggerdbl" unicode="&#x2021;" 
d="M528 186q94 11 179 57q104 55 136 55q45 0 72.5 -37.5t27.5 -94.5q0 -60 -30 -96t-79 -36q-28 0 -129 57q-81 46 -177 54q9 -94 55 -179q55 -105 55 -137q0 -44 -37.5 -71.5t-94.5 -27.5q-60 0 -96 29.5t-36 78.5q0 28 57 129q46 81 54 178q-94 -9 -179 -55
q-105 -56 -137 -56q-44 0 -71.5 37.5t-27.5 94.5q0 60 29.5 96t78.5 36q28 0 129 -57q82 -45 178 -55q-9 226 -111 398q102 171 111 397q-96 -10 -178 -55q-101 -57 -129 -57q-49 0 -78.5 36t-29.5 96q0 57 27.5 94.5t71.5 37.5q32 0 137 -56q85 -46 179 -55q-8 97 -54 178
q-57 101 -57 129q0 49 36 78.5t96 29.5q57 0 94.5 -27.5t37.5 -71.5q0 -32 -55 -137q-46 -85 -55 -179q96 8 177 54q101 57 129 57q49 0 79 -36t30 -96q0 -57 -27.5 -94.5t-72.5 -37.5q-32 0 -136 55q-85 46 -179 57q8 -226 110 -397q-102 -172 -110 -398z" />
    <glyph glyph-name="bullet" unicode="&#x2022;" horiz-adv-x="1024" 
d="M216 718q0 123 87 209t210 86q122 0 208.5 -86.5t86.5 -208.5t-87.5 -209.5t-209.5 -87.5q-123 0 -209 87t-86 210z" />
    <glyph glyph-name="ellipsis" unicode="&#x2026;" horiz-adv-x="2048" 
d="M145 167l82 84q15 14 29 14q13 0 31 -16l80 -86q12 -16 12 -29q0 -15 -14 -31l-80 -88q-20 -20 -29 -20q-16 0 -29 14l-88 101q-10 13 -10 26q0 15 16 31zM828 167l82 84q15 14 29 14q13 0 31 -16l80 -86q12 -16 12 -29q0 -15 -14 -31l-80 -88q-20 -20 -29 -20
q-16 0 -29 14l-88 101q-10 13 -10 26q0 15 16 31zM1511 167l82 84q15 14 29 14q13 0 31 -16l80 -86q12 -16 12 -29q0 -15 -14 -31l-80 -88q-20 -20 -29 -20q-16 0 -29 14l-88 101q-10 13 -10 26q0 15 16 31z" />
    <glyph glyph-name="guilsinglleft" unicode="&#x2039;" horiz-adv-x="631" 
d="M174 479l342 303h14v-37l-205 -266l205 -266v-37h-14z" />
    <glyph glyph-name="guilsinglright" unicode="&#x203a;" horiz-adv-x="631" 
d="M115 176h-14v37l205 266l-205 266v37h14l342 -303z" />
    <glyph glyph-name="fraction" unicode="&#x2044;" horiz-adv-x="342" 
d="M-342 -29l940 1461h84l-938 -1461h-86z" />
    <glyph glyph-name="fraction" unicode="&#x2215;" horiz-adv-x="342" 
d="M-342 -29l940 1461h84l-938 -1461h-86z" />
    <glyph glyph-name="franc" unicode="&#x20a3;" 
d="M247 357h-194v60h194v732q0 235 -103 235h-96v50h915l103 -231h-49q-59 182 -190 182l-316 -1q-102 0 -102 -235v-352h361q100 0 100 63v58h50v-342h-50v60q0 62 -100 62h-361v-281h194v-60h-194v-72q0 -235 102 -235h97v-50h-560v50h96q103 0 103 235v72z" />
    <glyph glyph-name="lira" unicode="&#x20a4;" 
d="M748 1347q-72 31 -160 31h-2q-100 0 -190 -101q-84 -93 -84 -241q0 -15 1 -30q0 -106 33 -213h380v-60h-360q12 -30 26 -60h352v-60h-321q35 -63 35 -138q0 -161 -162 -375h402q130 0 189 132l49 -1l-103 -231h-719l1 50q187 238 187 418q0 77 -34 143l-2 2h-172v60h143
q-14 31 -26 60h-135v60h113q-36 107 -36 193q0 226 123.5 347t310.5 121q75 0 185.5 -14t110.5 -34v-161h-58q-5 61 -77 102z" />
    <glyph glyph-name="peseta" unicode="&#x20a7;" horiz-adv-x="2028" 
d="M409 1384v-662q3 -9 7 -17q41 -102 108 -153q57 -44 116 -44q10 0 19 1q68 8 127 75t87 177q22 87 22 179q0 24 -1 47q-7 116 -49.5 218.5t-108.5 144.5q-56 35 -112 35q-10 0 -21 -1h-194zM1496 908h-179v-685q0 -81 34 -119q28 -31 81 -37l-71 192l49 1
q55 -130 114 -174q57 -44 127 -44h7q92 0 151 52q59 53 59 136q0 102 -259 226q-101 52 -144 112t-43 145q0 121 73 194zM1039 910q-7 -101 -48 -194q-50 -114 -141 -177.5t-190 -63.5q-100 0 -191 64q-33 22 -60 51v-305q0 -235 102 -235h97v-50h-560v50h96q103 0 103 235
v864q0 235 -103 235h-96v50h618q92 -2 181 -62q91 -62 143 -177q50 -113 51 -237h10q216 0 216 355h50v-355h259q42 19 110 20h2q54 0 133.5 -13.5t79.5 -33.5v-159h-42q-4 66 -65.5 108t-133.5 42q-64 0 -102.5 -36.5t-38.5 -96.5q0 -108 235 -220q122 -55 167.5 -117.5
t45.5 -153.5q0 -140 -83 -231q-102 -84 -228 -86q-58 0 -105 11q-28 6 -56 6q-18 0 -36 -3q-28 -5 -59 -5q-124 0 -173.5 57t-57.5 176h-1v687h-129z" />
    <glyph glyph-name="Euro" unicode="&#x20ac;" 
d="M140 372q-62 135 -76 281h-108l17 60h87v29q0 16 1 31h-71l17 60h58q14 145 76 281q81 178 226 274t298 96q43 0 87 -8q40 -10 82 -29q8 -6 16 -6q20 0 34 45h41l84 -281l-40 -1q-49 134 -138 178q-43 22 -81 32v3q-50 16 -101 16q-17 0 -34 -2q-120 -12 -226 -113.5
t-157 -273.5q-32 -104 -39 -211h706l-17 -60h-692q0 -30 2 -60h674l-17 -60h-652q17 -158 83 -298q74 -157 193 -236q102 -68 216 -69q186 3 256 91q74 91 74 185h48v-143q0 -70 -111 -127q-105 -54 -267 -56q-181 0 -325.5 98t-223.5 274z" />
    <glyph glyph-name="afii61352" unicode="&#x2116;" horiz-adv-x="2271" 
 />
    <glyph glyph-name="trademark" unicode="&#x2122;" horiz-adv-x="1497" 
 />
    <glyph glyph-name="partialdiff" unicode="&#x2202;" 
d="M232 537q0 -41 5 -79q14 -122 61.5 -230t118.5 -165q64 -53 128 -53q6 0 13 1q70 5 127.5 70.5t80.5 179.5q16 73 16 149q0 42 -5 85q-14 122 -62.5 231.5t-119.5 165.5q-65 50 -128 50h-11q-68 -5 -126 -69.5t-82 -178.5q-16 -84 -16 -157zM937 477q0 -132 -56.5 -251
t-159 -185t-214.5 -66t-214.5 66t-159 185t-56.5 251q0 131 58 251t161 185t211 65q109 0 212 -65q29 -18 54 -41q-84 235 -233.5 377t-326.5 155v55q306 0 515 -285t209 -697z" />
    <glyph glyph-name="Delta" unicode="&#x2206;" horiz-adv-x="1081" 
d="M514 1195l-406 -1072h801zM547 1434l526 -1434h-1067z" />
    <glyph glyph-name="product" unicode="&#x220f;" horiz-adv-x="1515" 
d="M511 1384q-102 0 -102 -235v-1281q0 -235 102 -235h97v-51h-560v51h96q103 0 103 235v1281q0 235 -103 235h-96v50h1419v-50h-97q-102 0 -102 -235v-1281q0 -235 102 -235h97v-50h-560v50h96q103 0 103 235v1281q0 235 -103 235h-492z" />
    <glyph glyph-name="summation" unicode="&#x2211;" horiz-adv-x="1206" 
d="M1059 548l-788 -914h635q130 0 189 182h49l-103 -232h-921v50q62 0 106 53l663 781l-663 859q-44 57 -106 57v50h921l103 -232h-49q-59 182 -189 182h-485z" />
    <glyph glyph-name="minus" unicode="&#x2212;" 
d="M87 647v140h839l1 -1v-139h-840z" />
    <glyph glyph-name="radical" unicode="&#x221a;" 
d="M181 0l-164 359l74 35l85 -185l728 1470h150v-60h-72z" />
    <glyph glyph-name="infinity" unicode="&#x221e;" 
d="M439 755q-15 103 -74 133q-46 22 -84 22q-12 0 -23 -2q-49 -10 -92.5 -44.5t-65.5 -84.5q-20 -46 -20 -90v-8q2 -48 27.5 -89t71.5 -58q29 -11 61 -11q16 0 33 3q47 10 90.5 43.5t75.5 185.5zM466 687q12 -96 94 -153q69 -48 123 -48q11 0 21 2q62 12 117.5 52t84.5 101
q26 54 26 108v11q-2 60 -35.5 108.5t-91.5 68.5q-37 13 -76 13q-22 0 -44 -4q-67 -9 -127 -62t-92 -197zM450 827q9 35 21 69q34 88 95 137t128 49t128 -48t95 -135t34 -182t-34 -182t-95 -135t-128 -48t-128 49t-95 136q-12 35 -21 70q-5 -21 -12 -41q-27 -73 -74 -113
t-99 -40t-100 41t-73.5 113.5t-25.5 149.5q0 76 25.5 149t73.5 114t100 41t99 -40t74 -112q7 -21 12 -42z" />
    <glyph glyph-name="integral" unicode="&#x222b;" horiz-adv-x="665" 
d="M-12 -281q-60 0 -60 29v159h36q1 -43 34.5 -64.5t63.5 -21.5h1q82 0 115 162q32 162 40 316l70 734l8 62q27 238 135 429.5t234 191.5q60 0 60 -29v-159h-36q-1 43 -35 64.5t-63 21.5q-71 0 -116 -155.5t-49 -363.5l-73 -767q-20 -231 -130.5 -420t-234.5 -189z" />
    <glyph glyph-name="approxequal" unicode="&#x2248;" 
d="M923 1053v-156q-63 -72 -122 -97.5t-116 -25.5q-60 0 -177.5 48.5t-176.5 48.5q-51 0 -107.5 -28t-129.5 -112v156q64 73 123 99t114 26q64 0 181.5 -49.5t172.5 -49.5q52 0 108.5 28t129.5 112zM923 705v-156q-63 -72 -122 -97.5t-116 -25.5q-60 0 -177.5 48.5
t-176.5 48.5q-51 0 -107.5 -28t-129.5 -112v156q64 73 123 99t114 26q64 0 181.5 -49.5t172.5 -49.5q52 0 108.5 28t129.5 112z" />
    <glyph glyph-name="lessequal" unicode="&#x2264;" 
d="M927 1074l-625 -359l625 -355v-167l-840 481v83l840 484v-167zM87 1v140h839l1 -1v-139h-840z" />
    <glyph glyph-name="greaterequal" unicode="&#x2265;" 
d="M87 1241l840 -484v-83l-840 -481v167l625 355l-625 359v167zM87 2v140h839l1 -1v-139h-840z" />
    <glyph glyph-name="uniF001" unicode="&#xf001;" horiz-adv-x="1073" 
 />
    <glyph glyph-name="uniF001" unicode="&#xfb01;" horiz-adv-x="1073" 
 />
    <glyph glyph-name="uniF002" unicode="&#xf002;" horiz-adv-x="1081" 
 />
    <glyph glyph-name="uniF002" unicode="&#xfb02;" horiz-adv-x="1081" 
 />
  </font>
</defs>
</svg>
